<svg width="26" height="26" viewBox="0 0 26 26" fill="none" xmlns="http://www.w3.org/2000/svg">
<path d="M13 2.59375C10.9913 2.59375 9.02768 3.1894 7.35749 4.30539C5.68731 5.42137 4.38556 7.00756 3.61685 8.86337C2.84815 10.7192 2.64702 12.7613 3.0389 14.7314C3.43079 16.7015 4.39807 18.5112 5.81845 19.9316C7.23883 21.3519 9.0485 22.3192 11.0186 22.7111C12.9887 23.103 15.0308 22.9019 16.8866 22.1332C18.7424 21.3644 20.3286 20.0627 21.4446 18.3925C22.5606 16.7223 23.1563 14.7587 23.1563 12.75C23.1534 10.0573 22.0825 7.47564 20.1784 5.57159C18.2744 3.66754 15.6927 2.59659 13 2.59375ZM6.35938 7.29785C7.45587 8.62523 8.12425 10.2538 8.27637 11.9688H4.44239C4.59655 10.2543 5.26469 8.62631 6.35938 7.29785ZM13.7813 11.9688V4.19238C15.5327 4.35101 17.1927 5.04563 18.5352 6.18164C17.1468 7.80868 16.3128 9.83573 16.1543 11.9688H13.7813ZM12.2188 11.9688H9.84571C9.68719 9.83573 8.85325 7.80868 7.46485 6.18164C8.80731 5.04563 10.4673 4.35101 12.2188 4.19238V11.9688ZM8.27637 13.5312C8.12425 15.2462 7.45587 16.8748 6.35938 18.2021C5.26469 16.8737 4.59655 15.2457 4.44239 13.5312H8.27637ZM9.84571 13.5312H12.2188V21.3076C10.4673 21.149 8.80731 20.4544 7.46485 19.3184C8.85307 17.6912 9.68699 15.6642 9.84571 13.5312ZM13.7813 13.5312H16.1543C16.313 15.6642 17.1469 17.6912 18.5352 19.3184C17.1927 20.4544 15.5327 21.149 13.7813 21.3076V13.5312ZM17.7236 13.5312H21.5576C21.4035 15.2457 20.7353 16.8737 19.6406 18.2021C18.5441 16.8748 17.8758 15.2462 17.7236 13.5312ZM17.7236 11.9688C17.8758 10.2538 18.5441 8.62523 19.6406 7.29785C20.7353 8.62631 21.4035 10.2543 21.5576 11.9688H17.7236Z" fill="#00FF04"/>
</svg>
