<svg width="50" height="50" viewBox="0 0 50 50" fill="none" xmlns="http://www.w3.org/2000/svg">
<path d="M43.7493 13.8875C43.3815 14.078 42.9532 14.1146 42.5583 13.9894C42.1635 13.8641 41.8346 13.5872 41.6439 13.2196C40.1525 10.2733 37.895 7.78304 35.1087 6.01057C34.9351 5.90105 34.7847 5.7584 34.6662 5.59077C34.5477 5.42314 34.4633 5.2338 34.418 5.03358C34.3727 4.83335 34.3672 4.62615 34.4019 4.42382C34.4367 4.22148 34.5109 4.02797 34.6204 3.85432C34.73 3.68068 34.8726 3.53031 35.0402 3.4118C35.2079 3.29329 35.3972 3.20895 35.5974 3.16361C35.7977 3.11827 36.0049 3.11281 36.2072 3.14754C36.4095 3.18228 36.6031 3.25652 36.7767 3.36604C40.024 5.44522 42.6607 8.34956 44.4173 11.7821C44.6078 12.1499 44.6444 12.5783 44.5192 12.9731C44.3939 13.3679 44.117 13.6968 43.7493 13.8875ZM6.97396 14.0633C7.26021 14.0632 7.54093 13.9844 7.78548 13.8356C8.03003 13.6868 8.229 13.4737 8.36067 13.2196C9.85209 10.2733 12.1095 7.78304 14.8958 6.01057C15.2465 5.78939 15.495 5.43795 15.5865 5.03358C15.6781 4.6292 15.6053 4.20501 15.3841 3.85432C15.1629 3.50364 14.8115 3.25518 14.4071 3.16361C14.0027 3.07204 13.5785 3.14486 13.2279 3.36604C9.9806 5.44522 7.34384 8.34956 5.58724 11.7821C5.46387 12.0202 5.40388 12.286 5.41302 12.5541C5.42216 12.8221 5.50014 13.0833 5.63944 13.3124C5.77874 13.5416 5.97469 13.731 6.20841 13.8626C6.44213 13.9941 6.70577 14.0632 6.97396 14.0633ZM43.3216 34.3641C43.5984 34.8388 43.7452 35.3781 43.7471 35.9276C43.749 36.4771 43.6059 37.0174 43.3324 37.494C43.0588 37.9705 42.6644 38.3666 42.189 38.6421C41.7135 38.9176 41.1739 39.0629 40.6243 39.0633H32.6556C32.297 40.8294 31.3388 42.4172 29.9435 43.5576C28.5482 44.6981 26.8015 45.3211 24.9993 45.3211C23.1972 45.3211 21.4505 44.6981 20.0552 43.5576C18.6599 42.4172 17.7017 40.8294 17.3431 39.0633H9.37435C8.82517 39.0622 8.28597 38.9164 7.81108 38.6406C7.33618 38.3648 6.94235 37.9687 6.66927 37.4923C6.39618 37.0158 6.25348 36.4758 6.25553 35.9266C6.25759 35.3774 6.40434 34.8385 6.68099 34.3641C8.44075 31.327 9.37435 27.0086 9.37435 21.8758C9.37435 17.7318 11.0205 13.7575 13.9508 10.8273C16.8811 7.89701 20.8553 6.25081 24.9993 6.25081C29.1434 6.25081 33.1176 7.89701 36.0479 10.8273C38.9781 13.7575 40.6243 17.7318 40.6243 21.8758C40.6243 27.0067 41.5579 31.325 43.3216 34.3641ZM29.4173 39.0633H20.5814C20.9051 39.9762 21.5037 40.7664 22.2948 41.3253C23.0859 41.8842 24.0307 42.1842 24.9993 42.1842C25.968 42.1842 26.9128 41.8842 27.7039 41.3253C28.495 40.7664 29.0936 39.9762 29.4173 39.0633ZM40.6243 35.9383C38.5462 32.3699 37.4993 27.6395 37.4993 21.8758C37.4993 18.5606 36.1824 15.3812 33.8382 13.037C31.494 10.6928 28.3146 9.37581 24.9993 9.37581C21.6841 9.37581 18.5047 10.6928 16.1605 13.037C13.8163 15.3812 12.4993 18.5606 12.4993 21.8758C12.4993 27.6414 11.4486 32.3719 9.37435 35.9383H40.6243Z" fill="#0B0446"/>
</svg>
