<svg width="50" height="50" viewBox="0 0 50 50" fill="none" xmlns="http://www.w3.org/2000/svg">
<path d="M13.4995 18.3887L5.56594 25.0001L13.4995 31.6114C13.6617 31.7412 13.7964 31.9021 13.8957 32.0846C13.9949 32.2671 14.0568 32.4676 14.0777 32.6743C14.0985 32.8811 14.0779 33.0899 14.0171 33.2885C13.9563 33.4872 13.8565 33.6717 13.7235 33.8314C13.5905 33.991 13.427 34.1225 13.2426 34.2182C13.0581 34.3138 12.8565 34.3718 12.6494 34.3886C12.4423 34.4054 12.2339 34.3807 12.0365 34.316C11.8391 34.2513 11.6565 34.1479 11.4995 34.0118L2.12453 26.1993C1.94862 26.0526 1.80709 25.8691 1.70997 25.6617C1.61284 25.4543 1.5625 25.2281 1.5625 24.9991C1.5625 24.7701 1.61284 24.5438 1.70997 24.3364C1.80709 24.129 1.94862 23.9455 2.12453 23.7989L11.4995 15.9864C11.8181 15.7212 12.229 15.5934 12.6418 15.6311C13.0546 15.6688 13.4355 15.869 13.7007 16.1876C13.9659 16.5061 14.0937 16.917 14.056 17.3298C14.0183 17.7426 13.8181 18.1235 13.4995 18.3887ZM47.8745 23.7989L38.4995 15.9864C38.3418 15.8551 38.1597 15.7561 37.9637 15.6951C37.7678 15.6342 37.5617 15.6124 37.3573 15.6311C37.1529 15.6498 36.9542 15.7085 36.7725 15.804C36.5908 15.8995 36.4297 16.0298 36.2984 16.1876C36.0331 16.5061 35.9053 16.917 35.9431 17.3298C35.9808 17.7426 36.181 18.1235 36.4995 18.3887L44.4331 25.0001L36.4995 31.6114C36.3373 31.7412 36.2027 31.9021 36.1034 32.0846C36.0041 32.2671 35.9423 32.4676 35.9214 32.6743C35.9005 32.8811 35.9211 33.0899 35.9819 33.2885C36.0428 33.4872 36.1426 33.6717 36.2756 33.8314C36.4086 33.991 36.5721 34.1225 36.7565 34.2182C36.9409 34.3138 37.1426 34.3718 37.3497 34.3886C37.5568 34.4054 37.7651 34.3807 37.9626 34.316C38.16 34.2513 38.3425 34.1479 38.4995 34.0118L47.8745 26.1993C48.0504 26.0526 48.192 25.8691 48.2891 25.6617C48.3862 25.4543 48.4366 25.2281 48.4366 24.9991C48.4366 24.7701 48.3862 24.5438 48.2891 24.3364C48.192 24.129 48.0504 23.9455 47.8745 23.7989ZM31.7827 6.3438C31.5899 6.27377 31.3851 6.24243 31.1801 6.25154C30.9751 6.26066 30.7739 6.31007 30.588 6.39694C30.4021 6.48382 30.2351 6.60646 30.0966 6.75786C29.9581 6.90926 29.8508 7.08647 29.7808 7.27935L17.2808 41.6544C17.2105 41.8473 17.1789 42.0523 17.1878 42.2575C17.1968 42.4627 17.2462 42.6642 17.333 42.8503C17.4199 43.0364 17.5427 43.2036 17.6942 43.3422C17.8458 43.4809 18.0232 43.5883 18.2163 43.6583C18.3875 43.7191 18.5679 43.7501 18.7495 43.7501C19.0704 43.7501 19.3835 43.6513 19.6463 43.4671C19.9091 43.283 20.1088 43.0224 20.2183 42.7208L32.7183 8.34575C32.7883 8.15288 32.8197 7.94809 32.8105 7.7431C32.8014 7.5381 32.752 7.33691 32.6651 7.15101C32.5783 6.96511 32.4556 6.79815 32.3042 6.65964C32.1528 6.52114 31.9756 6.41382 31.7827 6.3438Z" fill="#0B0446"/>
</svg>
