<svg width="20" height="20" viewBox="0 0 20 20" fill="none" xmlns="http://www.w3.org/2000/svg">
<path d="M9.9993 6.2493C9.25762 6.2493 8.5326 6.46924 7.91592 6.88129C7.29923 7.29335 6.81858 7.87902 6.53476 8.56424C6.25093 9.24946 6.17666 10.0035 6.32136 10.7309C6.46605 11.4583 6.82321 12.1265 7.34765 12.651C7.8721 13.1754 8.54029 13.5326 9.26772 13.6772C9.99514 13.8219 10.7491 13.7477 11.4344 13.4639C12.1196 13.18 12.7053 12.6994 13.1173 12.0827C13.5294 11.466 13.7493 10.741 13.7493 9.9993C13.7483 9.00506 13.3529 8.05183 12.6498 7.3488C11.9468 6.64576 10.9935 6.25034 9.9993 6.2493ZM9.9993 12.4993C9.50485 12.4993 9.0215 12.3527 8.61038 12.078C8.19926 11.8033 7.87882 11.4128 7.6896 10.956C7.50039 10.4992 7.45088 9.99653 7.54734 9.51158C7.6438 9.02663 7.88191 8.58117 8.23154 8.23154C8.58117 7.88191 9.02663 7.6438 9.51158 7.54734C9.99653 7.45088 10.4992 7.50039 10.956 7.6896C11.4128 7.87882 11.8033 8.19926 12.078 8.61038C12.3527 9.0215 12.4993 9.50485 12.4993 9.9993C12.4993 10.6623 12.2359 11.2982 11.7671 11.7671C11.2982 12.2359 10.6623 12.4993 9.9993 12.4993ZM16.8743 10.1681C16.8774 10.0556 16.8774 9.94305 16.8743 9.83055L18.0399 8.3743C18.101 8.29784 18.1434 8.2081 18.1634 8.11229C18.1835 8.01649 18.1808 7.91731 18.1556 7.82274C17.9645 7.10446 17.6786 6.41481 17.3056 5.77196C17.2567 5.68783 17.1889 5.61627 17.1075 5.56297C17.0261 5.50967 16.9334 5.4761 16.8368 5.46493L14.9837 5.25868C14.9066 5.17743 14.8285 5.0993 14.7493 5.0243L14.5306 3.16649C14.5193 3.06978 14.4856 2.97704 14.4322 2.89566C14.3787 2.81427 14.307 2.7465 14.2227 2.69774C13.5796 2.32536 12.8901 2.0398 12.172 1.84852C12.0773 1.82336 11.9781 1.82079 11.8823 1.84101C11.7865 1.86123 11.6968 1.90368 11.6204 1.96493L10.1681 3.1243C10.0556 3.1243 9.94305 3.1243 9.83055 3.1243L8.3743 1.96102C8.29784 1.8999 8.2081 1.8576 8.11229 1.83752C8.01649 1.81743 7.91731 1.82013 7.82274 1.8454C7.10458 2.03682 6.41497 2.32265 5.77196 2.6954C5.68783 2.74425 5.61627 2.81206 5.56297 2.89344C5.50967 2.97481 5.4761 3.06751 5.46493 3.16415L5.25868 5.0204C5.17743 5.098 5.0993 5.17613 5.0243 5.25477L3.16649 5.46805C3.06978 5.47931 2.97704 5.51299 2.89566 5.56644C2.81427 5.61988 2.7465 5.69159 2.69774 5.77587C2.32536 6.41896 2.0398 7.10855 1.84852 7.82665C1.82336 7.92128 1.82079 8.02049 1.84101 8.1163C1.86123 8.2121 1.90368 8.30182 1.96493 8.37821L3.1243 9.83055C3.1243 9.94305 3.1243 10.0556 3.1243 10.1681L1.96102 11.6243C1.8999 11.7008 1.8576 11.7905 1.83752 11.8863C1.81743 11.9821 1.82013 12.0813 1.8454 12.1759C2.03648 12.8941 2.32233 13.5838 2.6954 14.2266C2.74425 14.3108 2.81206 14.3823 2.89344 14.4356C2.97481 14.4889 3.06751 14.5225 3.16415 14.5337L5.01727 14.7399C5.09488 14.8212 5.173 14.8993 5.25165 14.9743L5.46805 16.8321C5.47931 16.9288 5.51299 17.0216 5.56644 17.103C5.61988 17.1843 5.69159 17.2521 5.77587 17.3009C6.41896 17.6733 7.10855 17.9588 7.82665 18.1501C7.92128 18.1752 8.02049 18.1778 8.1163 18.1576C8.2121 18.1374 8.30182 18.0949 8.37821 18.0337L9.83055 16.8743C9.94305 16.8774 10.0556 16.8774 10.1681 16.8743L11.6243 18.0399C11.7008 18.101 11.7905 18.1434 11.8863 18.1634C11.9821 18.1835 12.0813 18.1808 12.1759 18.1556C12.8941 17.9645 13.5838 17.6786 14.2266 17.3056C14.3108 17.2567 14.3823 17.1889 14.4356 17.1075C14.4889 17.0261 14.5225 16.9334 14.5337 16.8368L14.7399 14.9837C14.8212 14.9066 14.8993 14.8285 14.9743 14.7493L16.8321 14.5306C16.9288 14.5193 17.0216 14.4856 17.103 14.4322C17.1843 14.3787 17.2521 14.307 17.3009 14.2227C17.6733 13.5796 17.9588 12.8901 18.1501 12.172C18.1752 12.0773 18.1778 11.9781 18.1576 11.8823C18.1374 11.7865 18.0949 11.6968 18.0337 11.6204L16.8743 10.1681ZM15.6165 9.66024C15.6298 9.88609 15.6298 10.1125 15.6165 10.3384C15.6072 10.493 15.6556 10.6456 15.7524 10.7665L16.861 12.1516C16.7338 12.5559 16.5709 12.9481 16.3743 13.3235L14.6087 13.5235C14.4549 13.5406 14.313 13.6141 14.2102 13.7298C14.0599 13.8989 13.8997 14.0591 13.7306 14.2095C13.6149 14.3122 13.5414 14.4541 13.5243 14.6079L13.3282 16.372C12.9528 16.5687 12.5606 16.7316 12.1563 16.8587L10.7704 15.7501C10.6595 15.6615 10.5217 15.6133 10.3798 15.6134H10.3423C10.1164 15.6266 9.88999 15.6266 9.66415 15.6134C9.50952 15.6041 9.35695 15.6525 9.23602 15.7493L7.84696 16.8587C7.44269 16.7315 7.05052 16.5686 6.67508 16.372L6.47508 14.6087C6.45802 14.4549 6.38453 14.313 6.26884 14.2102C6.0997 14.0599 5.93953 13.8997 5.78915 13.7306C5.68644 13.6149 5.54447 13.5414 5.39071 13.5243L3.62665 13.3274C3.42992 12.952 3.26704 12.5599 3.13993 12.1556L4.24852 10.7696C4.34532 10.6487 4.39377 10.4961 4.38446 10.3415C4.37118 10.1156 4.37118 9.88921 4.38446 9.66337C4.39377 9.50874 4.34532 9.35617 4.24852 9.23524L3.13993 7.84696C3.26714 7.44269 3.43002 7.05052 3.62665 6.67508L5.38993 6.47508C5.54369 6.45802 5.68566 6.38453 5.78837 6.26884C5.93875 6.0997 6.09892 5.93953 6.26805 5.78915C6.38421 5.68637 6.458 5.54408 6.47508 5.38993L6.67118 3.62665C7.04657 3.42992 7.43875 3.26704 7.84305 3.13993L9.22899 4.24852C9.34992 4.34532 9.50249 4.39377 9.65712 4.38446C9.88296 4.37118 10.1094 4.37118 10.3352 4.38446C10.4899 4.39377 10.6424 4.34532 10.7634 4.24852L12.1516 3.13993C12.5559 3.26714 12.9481 3.43002 13.3235 3.62665L13.5235 5.38993C13.5406 5.54369 13.6141 5.68566 13.7298 5.78837C13.8989 5.93875 14.0591 6.09892 14.2095 6.26805C14.3122 6.38375 14.4541 6.45724 14.6079 6.4743L16.372 6.6704C16.5687 7.04579 16.7316 7.43797 16.8587 7.84227L15.7501 9.22821C15.6524 9.35016 15.6039 9.5043 15.6141 9.66024H15.6165Z" fill="white"/>
</svg>
