<svg width="20" height="20" viewBox="0 0 20 20" fill="none" xmlns="http://www.w3.org/2000/svg">
<g clip-path="url(#clip0_207_157)">
<path d="M15.3033 8.23248C15.5474 8.47656 15.5474 8.87229 15.3033 9.11637L14.4194 10.0002C14.1753 10.2443 13.7796 10.2443 13.5355 10.0002C13.2915 9.75617 13.2915 9.36044 13.5355 9.11637L14.4194 8.23248C14.6635 7.98841 15.0592 7.98841 15.3033 8.23248Z" fill="white"/>
<path d="M12.6517 10.8841C12.8957 11.1282 12.8957 11.5239 12.6517 11.768L11.7678 12.6519C11.5237 12.896 11.128 12.896 10.8839 12.6519C10.6398 12.4078 10.6398 12.0121 10.8839 11.768L11.7678 10.8841C12.0118 10.6401 12.4076 10.6401 12.6517 10.8841Z" fill="white"/>
<path d="M10 13.5358C10.2441 13.7799 10.2441 14.1756 10 14.4197L9.11612 15.3035C8.87204 15.5476 8.47631 15.5476 8.23223 15.3035C7.98816 15.0595 7.98816 14.6637 8.23223 14.4197L9.11612 13.5358C9.36019 13.2917 9.75592 13.2917 10 13.5358Z" fill="white"/>
<path d="M11.7678 4.69695C12.0118 4.94103 12.0118 5.33676 11.7678 5.58083L10.8839 6.46472C10.6398 6.70879 10.2441 6.70879 10 6.46472C9.75592 6.22064 9.75592 5.82491 10 5.58083L10.8839 4.69695C11.128 4.45287 11.5237 4.45287 11.7678 4.69695Z" fill="white"/>
<path d="M9.11612 7.3486C9.36019 7.59268 9.36019 7.9884 9.11612 8.23248L8.23223 9.11637C7.98816 9.36044 7.59243 9.36044 7.34835 9.11637C7.10427 8.87229 7.10427 8.47656 7.34835 8.23248L8.23223 7.3486C8.47631 7.10452 8.87204 7.10452 9.11612 7.3486Z" fill="white"/>
<path d="M6.46447 10.0002C6.70854 10.2443 6.70854 10.6401 6.46447 10.8841L5.58058 11.768C5.33651 12.0121 4.94078 12.0121 4.6967 11.768C4.45262 11.5239 4.45262 11.1282 4.6967 10.8841L5.58058 10.0002C5.82466 9.75617 6.22039 9.75617 6.46447 10.0002Z" fill="white"/>
<path fill-rule="evenodd" clip-rule="evenodd" d="M15.7452 15.7455C12.5722 18.9185 7.42777 18.9185 4.25476 15.7455C1.08175 12.5725 1.08175 7.42802 4.25476 4.25501C7.42777 1.082 12.5722 1.082 15.7452 4.25501C18.9183 7.42802 18.9183 12.5725 15.7452 15.7455ZM5.6004 15.2837C8.30143 17.5382 12.3255 17.3975 14.8614 14.8616C17.3972 12.3257 17.5379 8.30168 15.2835 5.60065L5.6004 15.2837ZM4.71652 14.3998L14.3996 4.71677C11.6986 2.4623 7.67452 2.60301 5.13864 5.13889C2.60276 7.67477 2.46205 11.6988 4.71652 14.3998Z" fill="white"/>
</g>
<defs>
<clipPath id="clip0_207_157">
<rect width="20" height="20" fill="white"/>
</clipPath>
</defs>
</svg>
