<svg width="26" height="26" viewBox="0 0 26 26" fill="none" xmlns="http://www.w3.org/2000/svg">
<g clip-path="url(#clip0_480_1263)">
<path d="M19.6291 10.5401C19.9342 10.8452 19.9342 11.3399 19.6291 11.645L18.5243 12.7498C18.2192 13.0549 17.7245 13.0549 17.4194 12.7498C17.1143 12.4447 17.1143 11.9501 17.4194 11.645L18.5243 10.5401C18.8294 10.235 19.324 10.235 19.6291 10.5401Z" fill="#00FF04"/>
<path d="M16.3146 13.8547C16.6197 14.1598 16.6197 14.6544 16.3146 14.9595L15.2097 16.0644C14.9046 16.3695 14.41 16.3695 14.1049 16.0644C13.7998 15.7593 13.7998 15.2646 14.1049 14.9595L15.2097 13.8547C15.5148 13.5496 16.0095 13.5496 16.3146 13.8547Z" fill="#00FF04"/>
<path d="M13 17.1692C13.3051 17.4743 13.3051 17.969 13 18.2741L11.8951 19.3789C11.59 19.684 11.0954 19.684 10.7903 19.3789C10.4852 19.0739 10.4852 18.5792 10.7903 18.2741L11.8951 17.1692C12.2002 16.8641 12.6949 16.8641 13 17.1692Z" fill="#00FF04"/>
<path d="M15.2097 6.1207C15.5148 6.4258 15.5148 6.92046 15.2097 7.22555L14.1049 8.33041C13.7998 8.6355 13.3051 8.6355 13 8.33041C12.6949 8.02531 12.6949 7.53065 13 7.22555L14.1049 6.1207C14.41 5.8156 14.9046 5.8156 15.2097 6.1207Z" fill="#00FF04"/>
<path d="M11.8951 9.43526C12.2002 9.74036 12.2002 10.235 11.8951 10.5401L10.7903 11.645C10.4852 11.9501 9.99053 11.9501 9.68544 11.645C9.38034 11.3399 9.38034 10.8452 9.68544 10.5401L10.7903 9.43526C11.0954 9.13016 11.59 9.13016 11.8951 9.43526Z" fill="#00FF04"/>
<path d="M8.58058 12.7498C8.88568 13.0549 8.88568 13.5496 8.58058 13.8547L7.47573 14.9595C7.17063 15.2646 6.67597 15.2646 6.37087 14.9595C6.06578 14.6544 6.06578 14.1598 6.37087 13.8547L7.47573 12.7498C7.78083 12.4447 8.27549 12.4447 8.58058 12.7498Z" fill="#00FF04"/>
<path fill-rule="evenodd" clip-rule="evenodd" d="M20.1816 19.9314C16.2153 23.8976 9.78471 23.8976 5.81845 19.9314C1.85219 15.9651 1.85219 9.53453 5.81845 5.56827C9.78471 1.60201 16.2153 1.60201 20.1816 5.56827C24.1478 9.53453 24.1478 15.9651 20.1816 19.9314ZM7.5005 19.3542C10.8768 22.1723 15.9068 21.9964 19.0767 18.8265C22.2465 15.6567 22.4224 10.6266 19.6044 7.25033L7.5005 19.3542ZM6.39565 18.2493L18.4995 6.14547C15.1232 3.32739 10.0932 3.50328 6.9233 6.67313C3.75345 9.84298 3.57757 14.873 6.39565 18.2493Z" fill="#00FF04"/>
</g>
<defs>
<clipPath id="clip0_480_1263">
<rect width="25" height="25" fill="white" transform="translate(0.5 0.25)"/>
</clipPath>
</defs>
</svg>
