<svg width="50" height="50" viewBox="0 0 50 50" fill="none" xmlns="http://www.w3.org/2000/svg">
<path d="M48.437 15.6255C48.4377 14.7689 48.2373 13.9242 47.8518 13.1593C47.4663 12.3945 46.9065 11.7308 46.2175 11.2219C45.5286 10.713 44.7297 10.373 43.8853 10.2294C43.0409 10.0857 42.1746 10.1425 41.3561 10.3949C40.5377 10.6474 39.79 11.0886 39.1732 11.683C38.5565 12.2774 38.088 13.0083 37.8055 13.8169C37.523 14.6255 37.4344 15.4892 37.5468 16.3383C37.6592 17.1874 37.9694 17.9983 38.4526 18.7055L33.2202 25.1509L28.5151 14.3364C29.3732 13.6142 29.9885 12.6456 30.2776 11.5619C30.5667 10.4781 30.5156 9.33177 30.1312 8.27809C29.7468 7.22442 29.0477 6.31442 28.1287 5.67144C27.2097 5.02846 26.1152 4.68359 24.9936 4.68359C23.872 4.68359 22.7775 5.02846 21.8585 5.67144C20.9395 6.31442 20.2405 7.22442 19.8561 8.27809C19.4717 9.33177 19.4206 10.4781 19.7096 11.5619C19.9987 12.6456 20.614 13.6142 21.4721 14.3364L16.7788 25.145L11.5464 18.6997C12.2185 17.7148 12.5504 16.5373 12.4914 15.3463C12.4324 14.1554 11.9858 13.0164 11.2196 12.1028C10.4534 11.1892 9.40957 10.551 8.24714 10.2855C7.0847 10.02 5.86734 10.1416 4.78045 10.6319C3.69356 11.1223 2.7967 11.9544 2.22647 13.0016C1.65623 14.0488 1.44388 15.2536 1.62174 16.4327C1.7996 17.6117 2.35792 18.7003 3.21169 19.5327C4.06546 20.365 5.16787 20.8956 6.35104 21.0434L9.17916 38.0141C9.30075 38.7438 9.67719 39.4066 10.2415 39.8847C10.8059 40.3629 11.5215 40.6254 12.2612 40.6255H37.7378C38.4774 40.6254 39.1931 40.3629 39.7574 39.8847C40.3218 39.4066 40.6982 38.7438 40.8198 38.0141L43.646 21.0512C44.9686 20.8861 46.1853 20.2435 47.0676 19.2444C47.9498 18.2453 48.4368 16.9584 48.437 15.6255ZM24.9995 7.81297C25.463 7.81297 25.9162 7.95043 26.3016 8.20796C26.687 8.4655 26.9874 8.83154 27.1648 9.2598C27.3422 9.68807 27.3886 10.1593 27.2982 10.614C27.2078 11.0686 26.9845 11.4862 26.6568 11.814C26.329 12.1418 25.9114 12.365 25.4567 12.4554C25.0021 12.5459 24.5308 12.4995 24.1026 12.3221C23.6743 12.1447 23.3083 11.8443 23.0507 11.4588C22.7932 11.0734 22.6557 10.6203 22.6557 10.1567C22.6557 9.53512 22.9027 8.93897 23.3422 8.49944C23.7817 8.0599 24.3779 7.81297 24.9995 7.81297ZM4.68698 15.6255C4.68698 15.1619 4.82444 14.7088 5.08197 14.3234C5.3395 13.9379 5.70555 13.6375 6.13381 13.4601C6.56208 13.2827 7.03333 13.2363 7.48797 13.3268C7.94261 13.4172 8.36023 13.6404 8.68801 13.9682C9.01579 14.296 9.23901 14.7136 9.32944 15.1682C9.41988 15.6229 9.37346 16.0941 9.19607 16.5224C9.01868 16.9506 8.71827 17.3167 8.33284 17.5742C7.94742 17.8318 7.49428 17.9692 7.03073 17.9692C6.40913 17.9692 5.81298 17.7223 5.37345 17.2828C4.93391 16.8432 4.68698 16.2471 4.68698 15.6255ZM37.7378 37.5005H12.2612L9.54245 21.1958L15.9741 29.102C16.1198 29.284 16.3043 29.431 16.5141 29.5324C16.724 29.6338 16.9539 29.6869 17.187 29.688C17.2575 29.6883 17.328 29.6837 17.3979 29.6743C17.6641 29.6381 17.9165 29.5339 18.1306 29.3717C18.3448 29.2096 18.5135 28.9949 18.6206 28.7485L24.3432 15.5845C24.779 15.6391 25.2199 15.6391 25.6557 15.5845L31.3784 28.7485C31.4854 28.9949 31.6541 29.2096 31.8683 29.3717C32.0825 29.5339 32.3348 29.6381 32.601 29.6743C32.671 29.6837 32.7414 29.6883 32.812 29.688C33.045 29.6869 33.2749 29.6338 33.4848 29.5324C33.6947 29.431 33.8792 29.284 34.0249 29.102L40.4565 21.188L37.7378 37.5005ZM42.9682 17.9692C42.5047 17.9692 42.0515 17.8318 41.6661 17.5742C41.2807 17.3167 40.9803 16.9506 40.8029 16.5224C40.6255 16.0941 40.5791 15.6229 40.6695 15.1682C40.7599 14.7136 40.9832 14.296 41.3109 13.9682C41.6387 13.6404 42.0563 13.4172 42.511 13.3268C42.9656 13.2363 43.4369 13.2827 43.8651 13.4601C44.2934 13.6375 44.6594 13.9379 44.917 14.3234C45.1745 14.7088 45.312 15.1619 45.312 15.6255C45.312 16.2471 45.065 16.8432 44.6255 17.2828C44.186 17.7223 43.5898 17.9692 42.9682 17.9692Z" fill="#0B0446"/>
</svg>
