<svg width="50" height="50" viewBox="0 0 50 50" fill="none" xmlns="http://www.w3.org/2000/svg">
<path d="M48.1911 15.7161C48.1919 14.8669 47.9931 14.0293 47.6109 13.2709C47.2287 12.5126 46.6737 11.8546 45.9906 11.35C45.3075 10.8454 44.5154 10.5083 43.6782 10.3659C42.8409 10.2235 41.982 10.2797 41.1705 10.53C40.3589 10.7804 39.6176 11.2178 39.0061 11.8072C38.3946 12.3965 37.9301 13.1212 37.65 13.923C37.3699 14.7247 37.282 15.581 37.3934 16.4229C37.5049 17.2648 37.8125 18.0688 38.2916 18.77L33.1036 25.1606L28.4385 14.438C29.2893 13.7219 29.8994 12.7615 30.186 11.687C30.4726 10.6125 30.422 9.47588 30.0408 8.43115C29.6597 7.38643 28.9666 6.48416 28.0554 5.84664C27.1442 5.20912 26.059 4.86719 24.9469 4.86719C23.8348 4.86719 22.7497 5.20912 21.8385 5.84664C20.9273 6.48416 20.2341 7.38643 19.853 8.43115C19.4719 9.47588 19.4212 10.6125 19.7078 11.687C19.9944 12.7615 20.6045 13.7219 21.4553 14.438L16.8019 25.1548L11.6139 18.7642C12.2803 17.7877 12.6093 16.6202 12.5509 15.4394C12.4924 14.2586 12.0495 13.1292 11.2899 12.2234C10.5302 11.3175 9.49524 10.6848 8.34268 10.4215C7.19012 10.1582 5.9831 10.2789 4.90544 10.765C3.82778 11.2512 2.93854 12.0762 2.37315 13.1145C1.80776 14.1528 1.59721 15.3474 1.77356 16.5164C1.94991 17.6855 2.5035 18.7648 3.35001 19.5901C4.19652 20.4154 5.28957 20.9414 6.46269 21.0881L9.26679 37.9146C9.38734 38.638 9.76059 39.2952 10.3201 39.7693C10.8797 40.2434 11.5893 40.5037 12.3226 40.5038H37.5828C38.3162 40.5037 39.0258 40.2434 39.5853 39.7693C40.1449 39.2952 40.5181 38.638 40.6387 37.9146L43.4408 21.0958C44.7522 20.932 45.9586 20.295 46.8334 19.3043C47.7081 18.3137 48.1909 17.0377 48.1911 15.7161ZM24.9527 7.96998C25.4123 7.96998 25.8616 8.10627 26.2438 8.36162C26.6259 8.61697 26.9238 8.9799 27.0997 9.40453C27.2756 9.82915 27.3216 10.2964 27.2319 10.7472C27.1423 11.198 26.9209 11.612 26.5959 11.937C26.2709 12.262 25.8569 12.4833 25.4061 12.573C24.9553 12.6627 24.4881 12.6167 24.0634 12.4408C23.6388 12.2649 23.2759 11.967 23.0205 11.5849C22.7652 11.2027 22.6289 10.7534 22.6289 10.2938C22.6289 9.6775 22.8737 9.08642 23.3095 8.65062C23.7453 8.21481 24.3364 7.96998 24.9527 7.96998ZM4.81276 15.7161C4.81276 15.2565 4.94906 14.8072 5.2044 14.4251C5.45975 14.0429 5.82268 13.7451 6.24731 13.5692C6.67194 13.3933 7.13918 13.3473 7.58996 13.4369C8.04075 13.5266 8.45482 13.7479 8.77981 14.0729C9.10481 14.3979 9.32613 14.812 9.4158 15.2628C9.50546 15.7135 9.45944 16.1808 9.28356 16.6054C9.10767 17.03 8.80982 17.393 8.42766 17.6483C8.04551 17.9037 7.59622 18.04 7.13661 18.04C6.52028 18.04 5.92921 17.7951 5.4934 17.3593C5.0576 16.9235 4.81276 16.3324 4.81276 15.7161ZM37.5828 37.4053H12.3226L9.62699 21.2391L16.004 29.0782C16.1484 29.2586 16.3314 29.4044 16.5395 29.5049C16.7476 29.6055 16.9755 29.6582 17.2066 29.6592C17.2765 29.6595 17.3464 29.655 17.4157 29.6456C17.6797 29.6097 17.9299 29.5064 18.1422 29.3456C18.3546 29.1848 18.5219 28.972 18.628 28.7277L24.3021 15.6755C24.7341 15.7296 25.1713 15.7296 25.6034 15.6755L31.2774 28.7277C31.3836 28.972 31.5509 29.1848 31.7632 29.3456C31.9756 29.5064 32.2258 29.6097 32.4897 29.6456C32.559 29.655 32.6289 29.6595 32.6989 29.6592C32.93 29.6582 33.1579 29.6055 33.366 29.5049C33.5741 29.4044 33.757 29.2586 33.9015 29.0782L40.2785 21.2314L37.5828 37.4053ZM42.7688 18.04C42.3092 18.04 41.8599 17.9037 41.4778 17.6483C41.0956 17.393 40.7978 17.03 40.6219 16.6054C40.446 16.1808 40.4 15.7135 40.4897 15.2628C40.5793 14.812 40.8006 14.3979 41.1256 14.0729C41.4506 13.7479 41.8647 13.5266 42.3155 13.4369C42.7663 13.3473 43.2335 13.3933 43.6581 13.5692C44.0828 13.7451 44.4457 14.0429 44.701 14.4251C44.9564 14.8072 45.0927 15.2565 45.0927 15.7161C45.0927 16.3324 44.8479 16.9235 44.412 17.3593C43.9762 17.7951 43.3852 18.04 42.7688 18.04Z" fill="#02021C"/>
</svg>
