<svg width="26" height="26" viewBox="0 0 26 26" fill="none" xmlns="http://www.w3.org/2000/svg">
<path d="M24.5236 9.8916L19.0549 3.6416C18.9818 3.55809 18.8917 3.49112 18.7906 3.44515C18.6896 3.39918 18.5799 3.37526 18.4689 3.375H7.53144C7.42044 3.37526 7.31077 3.39918 7.20974 3.44515C7.10871 3.49112 7.01863 3.55809 6.94551 3.6416L1.47676 9.8916C1.34918 10.0373 1.28023 10.2251 1.2833 10.4187C1.28637 10.6123 1.36123 10.7979 1.49336 10.9395L12.4309 22.6582C12.504 22.7366 12.5924 22.7991 12.6907 22.8418C12.789 22.8845 12.895 22.9066 13.0021 22.9066C13.1093 22.9066 13.2153 22.8845 13.3136 22.8418C13.4119 22.7991 13.5003 22.7366 13.5734 22.6582L24.5109 10.9395C24.6425 10.7974 24.7167 10.6116 24.719 10.418C24.7214 10.2244 24.6517 10.0368 24.5236 9.8916ZM22.216 9.625H18.0783L14.5627 4.9375H18.1144L22.216 9.625ZM7.7834 11.1875L10.7258 18.5439L3.86054 11.1875H7.7834ZM16.5334 11.1875L13.0002 20.0215L9.46699 11.1875H16.5334ZM9.87519 9.625L13.0002 5.45801L16.1252 9.625H9.87519ZM18.217 11.1875H22.1398L15.2746 18.5439L18.217 11.1875ZM7.88593 4.9375H11.4377L7.92207 9.625H3.78437L7.88593 4.9375Z" fill="#00FF04"/>
</svg>
