<svg width="50" height="50" viewBox="0 0 50 50" fill="none" xmlns="http://www.w3.org/2000/svg">
<path d="M48.0473 19.2832L37.1098 6.7832C36.9635 6.61618 36.7834 6.48223 36.5813 6.39029C36.3792 6.29835 36.1599 6.25052 35.9379 6.25H14.0629C13.8409 6.25052 13.6215 6.29835 13.4195 6.39029C13.2174 6.48223 13.0373 6.61618 12.891 6.7832L1.95351 19.2832C1.69835 19.5745 1.56047 19.9502 1.5666 20.3374C1.57274 20.7247 1.72245 21.0958 1.98672 21.3789L23.8617 44.8164C24.0079 44.9731 24.1848 45.0981 24.3814 45.1836C24.5779 45.269 24.79 45.3131 25.0043 45.3131C25.2186 45.3131 25.4307 45.269 25.6272 45.1836C25.8238 45.0981 26.0007 44.9731 26.1469 44.8164L48.0219 21.3789C48.285 21.0948 48.4334 20.7232 48.438 20.3359C48.4427 19.9487 48.3035 19.5736 48.0473 19.2832ZM43.432 18.75H35.1566L28.1254 9.375H35.2289L43.432 18.75ZM14.5668 21.875L20.4516 36.5879L6.72109 21.875H14.5668ZM32.0668 21.875L25.0004 39.543L17.934 21.875H32.0668ZM18.7504 18.75L25.0004 10.416L31.2504 18.75H18.7504ZM35.434 21.875H43.2797L29.5492 36.5879L35.434 21.875ZM14.7719 9.375H21.8754L14.8441 18.75H6.56875L14.7719 9.375Z" fill="#0B0446"/>
</svg>
