<svg width="50" height="50" viewBox="0 0 50 50" fill="none" xmlns="http://www.w3.org/2000/svg">
<path d="M48.0089 19.3405L37.1643 6.94664C37.0193 6.78104 36.8407 6.64823 36.6403 6.55707C36.44 6.46591 36.2225 6.41849 36.0024 6.41797H14.3132C14.0931 6.41849 13.8756 6.46591 13.6752 6.55707C13.4749 6.64823 13.2963 6.78104 13.1513 6.94664L2.30667 19.3405C2.05368 19.6293 1.91696 20.0018 1.92305 20.3858C1.92913 20.7697 2.07757 21.1377 2.33959 21.4184L24.0288 44.6568C24.1737 44.8122 24.3491 44.9361 24.544 45.0208C24.7389 45.1055 24.9491 45.1493 25.1617 45.1493C25.3742 45.1493 25.5844 45.1055 25.7793 45.0208C25.9742 44.9361 26.1496 44.8122 26.2945 44.6568L47.9837 21.4184C48.2447 21.1367 48.3917 20.7682 48.3964 20.3843C48.401 20.0003 48.2629 19.6284 48.0089 19.3405ZM43.4329 18.8118H35.2278L28.2562 9.51642H35.2994L43.4329 18.8118ZM14.8128 21.9102L20.6476 36.4982L7.03375 21.9102H14.8128ZM32.1642 21.9102L25.1578 39.4281L18.1514 21.9102H32.1642ZM18.9609 18.8118L25.1578 10.5486L31.3547 18.8118H18.9609ZM35.5028 21.9102H43.2818L29.668 36.4982L35.5028 21.9102ZM15.0161 9.51642H22.0593L15.0878 18.8118H6.8827L15.0161 9.51642Z" fill="#02021C"/>
</svg>
