<svg width="26" height="26" viewBox="0 0 26 26" fill="none" xmlns="http://www.w3.org/2000/svg">
<path d="M21.5739 11.79C21.5444 11.6648 21.4843 11.5488 21.3991 11.4524C21.314 11.356 21.2063 11.2821 21.0857 11.2373L15.4597 9.12695L16.8913 1.96581C16.9237 1.79943 16.9012 1.62701 16.827 1.47458C16.7528 1.32216 16.6311 1.19799 16.4802 1.12081C16.3292 1.04364 16.1573 1.01765 15.9903 1.04677C15.8233 1.07588 15.6703 1.15852 15.5544 1.28222L4.61691 13.001C4.52808 13.0946 4.46382 13.2087 4.42987 13.3332C4.39592 13.4577 4.39333 13.5887 4.42235 13.7144C4.45137 13.8402 4.51108 13.9568 4.59616 14.0538C4.68123 14.1508 4.78902 14.2253 4.90988 14.2705L10.5378 16.3809L9.11008 23.5342C9.07766 23.7006 9.10024 23.873 9.17441 24.0254C9.24858 24.1778 9.37031 24.302 9.52124 24.3792C9.67217 24.4563 9.8441 24.4823 10.0111 24.4532C10.1781 24.4241 10.3311 24.3415 10.447 24.2178L21.3845 12.499C21.4717 12.4054 21.5346 12.2918 21.5676 12.1682C21.6007 12.0445 21.6028 11.9147 21.5739 11.79ZM11.1814 21.1484L12.2038 16.0332C12.2404 15.8518 12.2114 15.6633 12.122 15.5012C12.0326 15.3392 11.8885 15.2142 11.7155 15.1484L6.55539 13.21L14.8191 4.35644L13.7976 9.47167C13.761 9.65309 13.79 9.8416 13.8794 10.0036C13.9688 10.1657 14.1129 10.2907 14.2859 10.3564L19.4421 12.29L11.1814 21.1484Z" fill="#00FF04"/>
</svg>
