<svg width="50" height="50" viewBox="0 0 50 50" fill="none" xmlns="http://www.w3.org/2000/svg">
<path d="M42.1459 23.0801C42.0868 22.8296 41.9667 22.5977 41.7963 22.4048C41.626 22.212 41.4106 22.0642 41.1694 21.9746L29.9174 17.7539L32.7807 3.43163C32.8455 3.09885 32.8004 2.75402 32.652 2.44917C32.5037 2.14431 32.2602 1.89598 31.9584 1.74163C31.6565 1.58728 31.3127 1.5353 30.9787 1.59353C30.6447 1.65177 30.3387 1.81705 30.1069 2.06444L8.23188 25.5019C8.05421 25.6891 7.92568 25.9174 7.85778 26.1664C7.78988 26.4154 7.78471 26.6774 7.84275 26.9289C7.90078 27.1804 8.02021 27.4136 8.19036 27.6076C8.36051 27.8017 8.57608 27.9506 8.81781 28.041L20.0737 32.2617L17.2182 46.5683C17.1534 46.9011 17.1985 47.2459 17.3469 47.5508C17.4952 47.8557 17.7387 48.104 18.0405 48.2583C18.3424 48.4127 18.6862 48.4647 19.0202 48.4064C19.3542 48.3482 19.6602 48.1829 19.892 47.9355L41.767 24.498C41.9415 24.3108 42.0673 24.0836 42.1333 23.8363C42.1994 23.5891 42.2037 23.3294 42.1459 23.0801ZM21.3608 41.7969L23.4057 31.5664C23.4789 31.2036 23.4209 30.8265 23.2421 30.5025C23.0632 30.1784 22.7751 29.9284 22.4291 29.7969L12.1088 25.9199L28.6362 8.21288L26.5932 18.4433C26.52 18.8062 26.578 19.1832 26.7569 19.5073C26.9357 19.8313 27.2238 20.0814 27.5698 20.2129L37.8823 24.0801L21.3608 41.7969Z" fill="#0B0446"/>
</svg>
