<svg width="51" height="50" viewBox="0 0 51 50" fill="none" xmlns="http://www.w3.org/2000/svg">
<path d="M42.364 23.1083C42.3053 22.86 42.1862 22.63 42.0173 22.4388C41.8484 22.2476 41.6349 22.1011 41.3957 22.0122L30.2393 17.8274L33.0783 3.62675C33.1426 3.29681 33.0978 2.95491 32.9507 2.65264C32.8037 2.35038 32.5623 2.10415 32.263 1.95111C31.9637 1.79808 31.6227 1.74654 31.2916 1.80427C30.9604 1.86201 30.657 2.02589 30.4272 2.27118L8.738 25.5096C8.56184 25.6952 8.43441 25.9216 8.36708 26.1685C8.29975 26.4153 8.29463 26.6751 8.35217 26.9244C8.40972 27.1738 8.52813 27.405 8.69683 27.5974C8.86553 27.7898 9.07928 27.9374 9.31896 28.0271L20.4792 32.2119L17.648 46.3971C17.5837 46.727 17.6285 47.0689 17.7756 47.3712C17.9226 47.6734 18.164 47.9197 18.4633 48.0727C18.7626 48.2257 19.1036 48.2773 19.4347 48.2195C19.7659 48.1618 20.0693 47.9979 20.2991 47.7526L41.9883 24.5142C42.1613 24.3286 42.286 24.1033 42.3515 23.8581C42.417 23.613 42.4213 23.3555 42.364 23.1083ZM21.7554 41.6661L23.7829 31.5225C23.8555 31.1628 23.798 30.789 23.6207 30.4677C23.4434 30.1463 23.1577 29.8984 22.8147 29.768L12.582 25.924L28.969 8.36739L26.9434 18.511C26.8708 18.8707 26.9283 19.2445 27.1056 19.5658C27.2829 19.8872 27.5686 20.1351 27.9116 20.2655L38.1365 24.0998L21.7554 41.6661Z" fill="#02021C"/>
</svg>
