<svg width="26" height="26" viewBox="0 0 26 26" fill="none" xmlns="http://www.w3.org/2000/svg">
<path d="M13 2.59375C10.9913 2.59375 9.02768 3.1894 7.35749 4.30539C5.68731 5.42137 4.38556 7.00756 3.61685 8.86337C2.84815 10.7192 2.64702 12.7613 3.0389 14.7314C3.43079 16.7015 4.39807 18.5112 5.81845 19.9316C7.23883 21.3519 9.0485 22.3192 11.0186 22.7111C12.9887 23.103 15.0308 22.9019 16.8866 22.1332C18.7424 21.3644 20.3286 20.0627 21.4446 18.3925C22.5606 16.7223 23.1563 14.7587 23.1563 12.75C23.1534 10.0573 22.0825 7.47564 20.1784 5.57159C18.2744 3.66754 15.6927 2.59659 13 2.59375ZM20.4727 16.9902H17.1895L16.2852 15.7441L17.5186 12.1523L18.9834 11.6748L21.5459 13.6406C21.4246 14.8196 21.0591 15.9603 20.4727 16.9902ZM4.45704 13.6406L7.01465 11.6758L8.4795 12.1533L9.71289 15.7451L8.81055 16.9902H5.52735C4.94019 15.9605 4.57401 14.8197 4.45215 13.6406H4.45704ZM5.4336 8.69531L5.97168 10.5117L4.47559 11.6533C4.60823 10.6175 4.92997 9.61489 5.42481 8.69531H5.4336ZM11.1445 15.0938L10.0254 11.8369L13 9.79199L15.9746 11.8369L14.8555 15.0938H11.1445ZM20.0381 10.5117L20.5762 8.69531C21.071 9.61489 21.3928 10.6175 21.5254 11.6533L20.0381 10.5117ZM19.4326 7.05664L18.5039 10.1895L17.0322 10.667L13.7813 8.43262V6.91113L16.6221 4.95801C17.6921 5.45839 18.6482 6.17261 19.4316 7.05664H19.4326ZM14.7647 4.33887L13 5.55176L11.2354 4.33887C12.3992 4.09537 13.6008 4.09537 14.7647 4.33887ZM9.37793 4.95801L12.2188 6.91113V8.43262L8.96875 10.667L7.49707 10.1895L6.56836 7.05664C7.35178 6.17261 8.30795 5.45839 9.37793 4.95801ZM6.667 18.5527H8.65625L9.35645 20.5322C8.33967 20.0537 7.4261 19.3813 6.667 18.5527ZM11.2422 21.1611L10.082 17.8975L10.9834 16.6562H15.0166L15.918 17.8975L14.7627 21.1611C13.6002 21.4048 12.3998 21.4048 11.2373 21.1611H11.2422ZM16.6484 20.5322L17.3486 18.5527H19.3379C18.5774 19.3818 17.6621 20.0543 16.6436 20.5322H16.6484Z" fill="#00FF04"/>
</svg>
