<svg width="50" height="50" viewBox="0 0 50 50" fill="none" xmlns="http://www.w3.org/2000/svg">
<path d="M46.418 23.8938L27.668 5.14381C27.4494 4.92504 27.1709 4.77603 26.8677 4.71564C26.5644 4.65525 26.2501 4.68619 25.9644 4.80455C25.6787 4.92292 25.4346 5.12338 25.2629 5.38056C25.0913 5.63773 24.9998 5.94007 25 6.24928V14.0618H20.3125C19.8981 14.0618 19.5007 14.2264 19.2076 14.5194C18.9146 14.8125 18.75 15.2099 18.75 15.6243V34.3743C18.75 34.7887 18.9146 35.1861 19.2076 35.4791C19.5007 35.7722 19.8981 35.9368 20.3125 35.9368H25V43.7493C24.9998 44.0585 25.0913 44.3608 25.2629 44.618C25.4346 44.8752 25.6787 45.0756 25.9644 45.194C26.2501 45.3124 26.5644 45.3433 26.8677 45.2829C27.1709 45.2225 27.4494 45.0735 27.668 44.8548L46.418 26.1047C46.5632 25.9596 46.6785 25.7873 46.7571 25.5976C46.8358 25.4079 46.8762 25.2046 46.8762 24.9993C46.8762 24.7939 46.8358 24.5906 46.7571 24.4009C46.6785 24.2113 46.5632 24.0389 46.418 23.8938ZM28.125 39.9778V34.3743C28.125 33.9599 27.9604 33.5625 27.6674 33.2694C27.3743 32.9764 26.9769 32.8118 26.5625 32.8118H21.875V17.1868H26.5625C26.9769 17.1868 27.3743 17.0222 27.6674 16.7291C27.9604 16.4361 28.125 16.0387 28.125 15.6243V10.0208L43.1035 24.9993L28.125 39.9778ZM9.375 15.6243V34.3743C9.375 34.7887 9.21038 35.1861 8.91735 35.4791C8.62433 35.7722 8.2269 35.9368 7.8125 35.9368C7.3981 35.9368 7.00067 35.7722 6.70765 35.4791C6.41462 35.1861 6.25 34.7887 6.25 34.3743V15.6243C6.25 15.2099 6.41462 14.8125 6.70765 14.5194C7.00067 14.2264 7.3981 14.0618 7.8125 14.0618C8.2269 14.0618 8.62433 14.2264 8.91735 14.5194C9.21038 14.8125 9.375 15.2099 9.375 15.6243ZM15.625 15.6243V34.3743C15.625 34.7887 15.4604 35.1861 15.1674 35.4791C14.8743 35.7722 14.4769 35.9368 14.0625 35.9368C13.6481 35.9368 13.2507 35.7722 12.9576 35.4791C12.6646 35.1861 12.5 34.7887 12.5 34.3743V15.6243C12.5 15.2099 12.6646 14.8125 12.9576 14.5194C13.2507 14.2264 13.6481 14.0618 14.0625 14.0618C14.4769 14.0618 14.8743 14.2264 15.1674 14.5194C15.4604 14.8125 15.625 15.2099 15.625 15.6243Z" fill="#00FF04"/>
</svg>
