<svg width="20" height="20" viewBox="0 0 20 20" fill="none" xmlns="http://www.w3.org/2000/svg">
<path d="M17.8951 4.21022C17.8059 3.68425 17.5553 3.19904 17.178 2.82181C16.8008 2.44458 16.3156 2.19399 15.7896 2.10476C13.2607 1.67585 8.49354 1.47976 4.98729 4.98757C1.48104 8.49538 1.67557 13.261 2.10447 15.7899C2.19394 16.3164 2.44511 16.802 2.8231 17.1793C3.20109 17.5566 3.68716 17.8069 4.21385 17.8954C5.0999 18.0465 5.99703 18.1233 6.89588 18.1251C9.40291 18.1251 12.5248 17.5001 15.0123 15.0126C18.5193 11.5063 18.324 6.73913 17.8951 4.21022ZM13.0818 3.11647C13.9198 3.11943 14.7561 3.1926 15.5818 3.33522C15.8522 3.38142 16.1016 3.5105 16.2955 3.70463C16.4893 3.89876 16.618 4.14833 16.6638 4.41882C16.825 5.35306 16.8957 6.30069 16.8748 7.24851L12.7506 3.12507C12.8599 3.11882 12.9685 3.11726 13.0818 3.11726V3.11647ZM4.41854 16.6641C4.14808 16.6181 3.8986 16.4892 3.70462 16.2952C3.51063 16.1013 3.38172 15.8518 3.33572 15.5813C3.17454 14.6471 3.1039 13.6994 3.12479 12.7516L7.24822 16.8751C6.3004 16.8963 5.35273 16.8257 4.41854 16.6641ZM14.1295 14.1298C13.2224 15.036 11.5303 16.2962 8.86619 16.729L3.27088 11.1337C3.70369 8.4696 4.96385 6.77741 5.8701 5.87038C6.77635 4.96335 8.46854 3.70319 11.1326 3.27038L16.7287 8.86647C16.2959 11.5305 15.0357 13.2227 14.1295 14.1298ZM12.9404 7.05944C13.0575 7.17664 13.1233 7.33555 13.1233 7.50124C13.1233 7.66693 13.0575 7.82584 12.9404 7.94304L11.8201 9.06257L12.3154 9.55788C12.3772 9.61502 12.4268 9.68405 12.4612 9.76082C12.4956 9.83759 12.5142 9.92052 12.5158 10.0046C12.5174 10.0888 12.5021 10.1724 12.4706 10.2504C12.4391 10.3284 12.3922 10.3993 12.3327 10.4588C12.2732 10.5182 12.2022 10.5651 12.1242 10.5965C12.0461 10.6279 11.9625 10.6432 11.8784 10.6415C11.7943 10.6398 11.7114 10.6212 11.6346 10.5867C11.5579 10.5521 11.4889 10.5025 11.4318 10.4407L10.9373 9.94616L9.94588 10.9376L10.4412 11.4329C10.503 11.49 10.5526 11.559 10.5872 11.6357C10.6217 11.7124 10.6403 11.7953 10.642 11.8795C10.6437 11.9636 10.6284 12.0472 10.597 12.1253C10.5656 12.2033 10.5187 12.2742 10.4593 12.3338C10.3998 12.3933 10.3289 12.4402 10.2509 12.4716C10.1729 12.5031 10.0893 12.5185 10.0051 12.5169C9.92102 12.5153 9.83809 12.4967 9.76132 12.4623C9.68455 12.4278 9.61552 12.3782 9.55838 12.3165L9.06229 11.8204L7.94197 12.9407C7.88452 13.0012 7.81553 13.0495 7.73908 13.0829C7.66264 13.1163 7.58028 13.1341 7.49686 13.1352C7.41345 13.1362 7.33066 13.1206 7.25339 13.0892C7.17611 13.0577 7.10591 13.0111 7.04692 12.9522C6.98793 12.8932 6.94135 12.823 6.90992 12.7457C6.87849 12.6684 6.86285 12.5856 6.86391 12.5022C6.86498 12.4188 6.88274 12.3364 6.91614 12.26C6.94954 12.1835 6.9979 12.1146 7.05838 12.0571L8.17947 10.9376L7.68416 10.4423C7.57457 10.3236 7.51517 10.1671 7.51841 10.0057C7.52165 9.84417 7.58728 9.69021 7.70154 9.57606C7.8158 9.4619 7.96982 9.3964 8.1313 9.39331C8.29279 9.39021 8.4492 9.44975 8.56776 9.55944L9.06307 10.0548L10.0537 9.06257L9.55838 8.56726C9.44869 8.4487 9.38915 8.29229 9.39224 8.1308C9.39534 7.96932 9.46083 7.8153 9.57499 7.70104C9.68915 7.58678 9.84311 7.52115 10.0046 7.51791C10.1661 7.51467 10.3225 7.57407 10.4412 7.68366L10.9373 8.17976L12.0576 7.05944C12.1748 6.94256 12.3335 6.87692 12.499 6.87692C12.6645 6.87692 12.8232 6.94256 12.9404 7.05944Z" fill="white"/>
</svg>
