<svg width="26" height="26" viewBox="0 0 26 26" fill="none" xmlns="http://www.w3.org/2000/svg">
<path d="M22.8689 5.51278C22.7573 4.85531 22.4441 4.2488 21.9726 3.77726C21.501 3.30572 20.8945 2.99248 20.237 2.88094C17.0759 2.34481 11.1169 2.09969 6.73411 6.48446C2.3513 10.8692 2.59446 16.8263 3.13059 19.9874C3.24243 20.6455 3.55638 21.2526 4.02887 21.7242C4.50137 22.1958 5.10896 22.5086 5.76731 22.6192C6.87488 22.8081 7.99629 22.9042 9.11985 22.9063C12.2536 22.9063 16.156 22.1251 19.2654 19.0157C23.6491 14.6329 23.405 8.67391 22.8689 5.51278ZM16.8523 4.14559C17.8997 4.14929 18.9451 4.24075 19.9773 4.41903C20.3153 4.47677 20.627 4.63813 20.8693 4.88079C21.1117 5.12345 21.2726 5.43541 21.3298 5.77352C21.5313 6.94133 21.6196 8.12586 21.5935 9.31063L16.4382 4.15634C16.5749 4.14852 16.7107 4.14657 16.8523 4.14657V4.14559ZM6.02317 21.0802C5.6851 21.0227 5.37325 20.8615 5.13077 20.619C4.88829 20.3766 4.72715 20.0647 4.66966 19.7266C4.46817 18.5588 4.37987 17.3743 4.40598 16.1895L9.56028 21.3438C8.37549 21.3704 7.19092 21.2821 6.02317 21.0802ZM18.1618 17.9122C17.0281 19.045 14.9128 20.6202 11.5827 21.1612L4.5886 14.1671C5.12962 10.837 6.70481 8.72177 7.83762 7.58798C8.97044 6.45419 11.0857 4.87899 14.4158 4.33798L21.4109 11.3331C20.8699 14.6632 19.2947 16.7784 18.1618 17.9122ZM16.6755 9.0743C16.8219 9.2208 16.9042 9.41944 16.9042 9.62655C16.9042 9.83366 16.8219 10.0323 16.6755 10.1788L15.2751 11.5782L15.8943 12.1974C15.9715 12.2688 16.0334 12.3551 16.0765 12.451C16.1195 12.547 16.1428 12.6507 16.1448 12.7558C16.1468 12.861 16.1276 12.9654 16.0882 13.063C16.0489 13.1605 15.9903 13.2491 15.9159 13.3235C15.8415 13.3978 15.7528 13.4563 15.6552 13.4956C15.5577 13.5348 15.4532 13.554 15.348 13.5519C15.2429 13.5498 15.1392 13.5265 15.0433 13.4833C14.9474 13.4402 14.8611 13.3781 14.7898 13.3009L14.1716 12.6827L12.9324 13.922L13.5515 14.5411C13.6288 14.6125 13.6908 14.6987 13.7339 14.7946C13.7771 14.8905 13.8004 14.9942 13.8025 15.0993C13.8046 15.2045 13.7855 15.309 13.7462 15.4066C13.707 15.5041 13.6484 15.5928 13.5741 15.6672C13.4997 15.7416 13.4112 15.8002 13.3136 15.8396C13.2161 15.8789 13.1116 15.8981 13.0064 15.8961C12.9013 15.8941 12.7976 15.8709 12.7017 15.8278C12.6057 15.7848 12.5194 15.7228 12.448 15.6456L11.8279 15.0255L10.4275 16.4259C10.3556 16.5015 10.2694 16.5619 10.1739 16.6037C10.0783 16.6454 9.97535 16.6676 9.87108 16.6689C9.76681 16.6703 9.66333 16.6507 9.56673 16.6114C9.47014 16.5722 9.38239 16.5139 9.30865 16.4402C9.23492 16.3665 9.17669 16.2787 9.1374 16.1821C9.09811 16.0855 9.07856 15.982 9.07989 15.8778C9.08123 15.7735 9.10342 15.6705 9.14517 15.575C9.18692 15.4794 9.24738 15.3932 9.32298 15.3214L10.7243 13.922L10.1052 13.3028C9.96822 13.1545 9.89397 12.9589 9.89802 12.7571C9.90207 12.5552 9.9841 12.3628 10.1269 12.2201C10.2698 12.0774 10.4623 11.9955 10.6641 11.9916C10.866 11.9878 11.0615 12.0622 11.2097 12.1993L11.8288 12.8184L13.0671 11.5782L12.448 10.9591C12.3109 10.8109 12.2364 10.6154 12.2403 10.4135C12.2442 10.2116 12.326 10.0191 12.4687 9.8763C12.6114 9.73348 12.8039 9.65144 13.0057 9.64739C13.2076 9.64334 13.4032 9.71759 13.5515 9.85458L14.1716 10.4747L15.572 9.0743C15.7185 8.9282 15.9169 8.84615 16.1238 8.84615C16.3306 8.84615 16.5291 8.9282 16.6755 9.0743Z" fill="#00FF04"/>
</svg>
