<svg width="26" height="26" viewBox="0 0 26 26" fill="none" xmlns="http://www.w3.org/2000/svg">
<path d="M13 2.59375C10.9913 2.59375 9.02768 3.1894 7.35749 4.30539C5.68731 5.42137 4.38556 7.00756 3.61685 8.86337C2.84815 10.7192 2.64702 12.7613 3.0389 14.7314C3.43079 16.7015 4.39807 18.5112 5.81845 19.9316C7.23883 21.3519 9.0485 22.3192 11.0186 22.7111C12.9887 23.103 15.0308 22.9019 16.8866 22.1332C18.7424 21.3644 20.3286 20.0627 21.4446 18.3925C22.5606 16.7223 23.1563 14.7587 23.1563 12.75C23.1534 10.0573 22.0825 7.47564 20.1784 5.57159C18.2744 3.66754 15.6927 2.59659 13 2.59375ZM7.73438 19.5371C8.29955 18.6532 9.07813 17.9258 9.99837 17.4219C10.9186 16.9181 11.9509 16.654 13 16.654C14.0491 16.654 15.0814 16.9181 16.0016 17.4219C16.9219 17.9258 17.7005 18.6532 18.2656 19.5371C16.7601 20.708 14.9073 21.3437 13 21.3437C11.0928 21.3437 9.23991 20.708 7.73438 19.5371ZM9.875 11.9688C9.875 11.3507 10.0583 10.7465 10.4017 10.2326C10.745 9.71869 11.2331 9.31815 11.8041 9.08163C12.3751 8.8451 13.0035 8.78322 13.6097 8.9038C14.2159 9.02437 14.7727 9.322 15.2097 9.75904C15.6468 10.1961 15.9444 10.7529 16.065 11.3591C16.1855 11.9653 16.1237 12.5936 15.8871 13.1646C15.6506 13.7357 15.2501 14.2237 14.7362 14.5671C14.2223 14.9105 13.6181 15.0938 13 15.0938C12.1712 15.0938 11.3763 14.7645 10.7903 14.1785C10.2042 13.5924 9.875 12.7976 9.875 11.9688ZM19.4219 18.4541C18.5506 17.1915 17.3254 16.2147 15.9004 15.6465C16.6658 15.0436 17.2244 14.2172 17.4984 13.2821C17.7724 12.3471 17.7481 11.3499 17.4291 10.4292C17.1101 9.50859 16.5121 8.71024 15.7183 8.14521C14.9245 7.58017 13.9744 7.27654 13 7.27654C12.0256 7.27654 11.0755 7.58017 10.2817 8.14521C9.48791 8.71024 8.88992 9.50859 8.57089 10.4292C8.25186 11.3499 8.22766 12.3471 8.50164 13.2821C8.77562 14.2172 9.33417 15.0436 10.0996 15.6465C8.67463 16.2147 7.44945 17.1915 6.57813 18.4541C5.47712 17.216 4.7575 15.686 4.50591 14.0483C4.25432 12.4107 4.4815 10.7352 5.16008 9.22373C5.83866 7.71221 6.93972 6.42908 8.33067 5.52884C9.72162 4.62861 11.3432 4.14965 13 4.14965C14.6569 4.14965 16.2784 4.62861 17.6693 5.52884C19.0603 6.42908 20.1613 7.71221 20.8399 9.22373C21.5185 10.7352 21.7457 12.4107 21.4941 14.0483C21.2425 15.686 20.5229 17.216 19.4219 18.4541Z" fill="#00FF04"/>
</svg>
