<svg width="50" height="50" viewBox="0 0 50 50" fill="none" xmlns="http://www.w3.org/2000/svg">
<path d="M29.2313 27.0188C29.0862 26.8735 28.9139 26.7583 28.7242 26.6797C28.5345 26.601 28.3312 26.5605 28.1259 26.5605C27.9205 26.5605 27.7172 26.601 27.5275 26.6797C27.3378 26.7583 27.1655 26.8735 27.0204 27.0188L23.4384 30.6028L19.3974 26.5618L22.9813 22.9797C23.2745 22.6866 23.4392 22.2889 23.4392 21.8743C23.4392 21.4596 23.2745 21.062 22.9813 20.7688C22.6881 20.4756 22.2905 20.3109 21.8759 20.3109C21.4612 20.3109 21.0636 20.4756 20.7704 20.7688L17.1884 24.3528L13.6063 20.7688C13.3131 20.4756 12.9155 20.3109 12.5009 20.3109C12.0862 20.3109 11.6886 20.4756 11.3954 20.7688C11.1022 21.062 10.9375 21.4596 10.9375 21.8743C10.9375 22.2889 11.1022 22.6866 11.3954 22.9797L12.6356 24.218L8.08095 28.7708C7.50043 29.3511 7.03993 30.0402 6.72575 30.7986C6.41157 31.557 6.24986 32.3698 6.24986 33.1907C6.24986 34.0116 6.41157 34.8244 6.72575 35.5828C7.03993 36.3412 7.50043 37.0302 8.08095 37.6106L9.13173 38.6594L3.5829 44.2063C3.43773 44.3515 3.32257 44.5238 3.244 44.7135C3.16544 44.9032 3.125 45.1065 3.125 45.3118C3.125 45.5171 3.16544 45.7204 3.244 45.9101C3.32257 46.0997 3.43773 46.2721 3.5829 46.4172C3.87609 46.7104 4.27374 46.8751 4.68837 46.8751C4.89367 46.8751 5.09697 46.8347 5.28664 46.7561C5.47632 46.6776 5.64867 46.5624 5.79384 46.4172L11.3407 40.8684L12.3895 41.9192C12.9699 42.4997 13.659 42.9602 14.4174 43.2744C15.1757 43.5886 15.9886 43.7503 16.8095 43.7503C17.6303 43.7503 18.4432 43.5886 19.2016 43.2744C19.9599 42.9602 20.649 42.4997 21.2294 41.9192L25.7821 37.3645L27.0204 38.6047C27.1656 38.7499 27.3379 38.8651 27.5276 38.9436C27.7173 39.0222 27.9206 39.0626 28.1259 39.0626C28.3312 39.0626 28.5345 39.0222 28.7241 38.9436C28.9138 38.8651 29.0862 38.7499 29.2313 38.6047C29.3765 38.4596 29.4917 38.2872 29.5702 38.0976C29.6488 37.9079 29.6892 37.7046 29.6892 37.4993C29.6892 37.294 29.6488 37.0907 29.5702 36.901C29.4917 36.7113 29.3765 36.539 29.2313 36.3938L25.6474 32.8118L29.2313 29.2297C29.3766 29.0846 29.4919 28.9123 29.5705 28.7226C29.6491 28.5329 29.6896 28.3296 29.6896 28.1243C29.6896 27.9189 29.6491 27.7156 29.5705 27.5259C29.4919 27.3362 29.3766 27.1639 29.2313 27.0188ZM19.0184 39.7141C18.4325 40.2997 17.6379 40.6287 16.8095 40.6287C15.981 40.6287 15.1865 40.2997 14.6005 39.7141L10.2919 35.3997C9.70628 34.8137 9.37732 34.0191 9.37732 33.1907C9.37732 32.3622 9.70628 31.5677 10.2919 30.9817L14.8446 26.427L23.5731 35.1555L19.0184 39.7141ZM46.4188 3.58131C46.2737 3.43603 46.1014 3.32078 45.9117 3.24215C45.722 3.16352 45.5187 3.12305 45.3134 3.12305C45.108 3.12305 44.9047 3.16352 44.715 3.24215C44.5253 3.32078 44.353 3.43603 44.2079 3.58131L38.661 9.13014L37.6122 8.07935C36.4388 6.90933 34.8493 6.2523 33.1923 6.2523C31.5352 6.2523 29.9458 6.90933 28.7724 8.07935L24.2196 12.634L22.9813 11.3938C22.6881 11.1006 22.2905 10.9359 21.8759 10.9359C21.4612 10.9359 21.0636 11.1006 20.7704 11.3938C20.4772 11.687 20.3125 12.0846 20.3125 12.4993C20.3125 12.9139 20.4772 13.3116 20.7704 13.6047L36.3954 29.2297C36.5406 29.3749 36.7129 29.4901 36.9026 29.5686C37.0923 29.6472 37.2956 29.6876 37.5009 29.6876C37.7062 29.6876 37.9095 29.6472 38.0991 29.5686C38.2888 29.4901 38.4612 29.3749 38.6063 29.2297C38.7515 29.0846 38.8667 28.9122 38.9452 28.7226C39.0238 28.5329 39.0642 28.3296 39.0642 28.1243C39.0642 27.919 39.0238 27.7157 38.9452 27.526C38.8667 27.3363 38.7515 27.164 38.6063 27.0188L37.3661 25.7805L41.9208 21.2278C42.5013 20.6474 42.9618 19.9583 43.276 19.2C43.5902 18.4416 43.7519 17.6288 43.7519 16.8079C43.7519 15.987 43.5902 15.1741 43.276 14.4158C42.9618 13.6574 42.5013 12.9683 41.9208 12.3879L40.87 11.3391L46.4188 5.79224C46.5641 5.64713 46.6794 5.4748 46.758 5.28512C46.8366 5.09544 46.8771 4.89211 46.8771 4.68678C46.8771 4.48144 46.8366 4.27812 46.758 4.08843C46.6794 3.89875 46.5641 3.72642 46.4188 3.58131ZM39.7099 19.011L35.1571 23.5715L26.4286 14.843L30.9833 10.2903C31.5693 9.70468 32.3638 9.37572 33.1923 9.37572C34.0207 9.37572 34.8153 9.70468 35.4013 10.2903L39.7099 14.5872C40.0016 14.8775 40.2331 15.2227 40.391 15.6028C40.549 15.9829 40.6303 16.3904 40.6303 16.802C40.6303 17.2136 40.549 17.6212 40.391 18.0013C40.2331 18.3813 40.0016 18.7265 39.7099 19.0169V19.011Z" fill="#0B0446"/>
</svg>
