<svg width="40" height="40" viewBox="0 0 40 40" fill="none" xmlns="http://www.w3.org/2000/svg">
<path d="M23.3841 21.6166C23.268 21.5004 23.1301 21.4082 22.9784 21.3453C22.8266 21.2824 22.664 21.25 22.4997 21.25C22.3355 21.25 22.1728 21.2824 22.021 21.3453C21.8693 21.4082 21.7314 21.5004 21.6153 21.6166L18.7497 24.4838L15.5169 21.251L18.3841 18.3854C18.6186 18.1508 18.7504 17.8327 18.7504 17.501C18.7504 17.1693 18.6186 16.8512 18.3841 16.6166C18.1495 16.3821 17.8314 16.2503 17.4997 16.2503C17.168 16.2503 16.8499 16.3821 16.6153 16.6166L13.7497 19.4838L10.8841 16.6166C10.6495 16.3821 10.3314 16.2503 9.99972 16.2503C9.66801 16.2503 9.34989 16.3821 9.11534 16.6166C8.88079 16.8512 8.74902 17.1693 8.74902 17.501C8.74902 17.8327 8.88079 18.1508 9.11534 18.3854L10.1075 19.376L6.46378 23.0182C5.99937 23.4825 5.63097 24.0337 5.37962 24.6404C5.12828 25.2471 4.99891 25.8974 4.99891 26.5541C4.99891 27.2108 5.12828 27.8611 5.37962 28.4678C5.63097 29.0745 5.99937 29.6257 6.46378 30.09L7.30441 30.9291L2.86534 35.3666C2.74921 35.4827 2.65708 35.6206 2.59423 35.7724C2.53137 35.9241 2.49902 36.0867 2.49902 36.251C2.49902 36.4152 2.53137 36.5779 2.59423 36.7296C2.65708 36.8813 2.74921 37.0192 2.86534 37.1354C3.09989 37.3699 3.41801 37.5017 3.74972 37.5017C3.91396 37.5017 4.0766 37.4693 4.22834 37.4065C4.38008 37.3436 4.51796 37.2515 4.63409 37.1354L9.07159 32.6963L9.91066 33.5369C10.375 34.0013 10.9262 34.3697 11.5329 34.6211C12.1396 34.8724 12.7899 35.0018 13.4466 35.0018C14.1033 35.0018 14.7536 34.8724 15.3603 34.6211C15.967 34.3697 16.5182 34.0013 16.9825 33.5369L20.6247 29.8932L21.6153 30.8854C21.7315 31.0015 21.8694 31.0936 22.0211 31.1565C22.1728 31.2193 22.3355 31.2517 22.4997 31.2517C22.664 31.2517 22.8266 31.2193 22.9783 31.1565C23.1301 31.0936 23.268 31.0015 23.3841 30.8854C23.5002 30.7692 23.5924 30.6313 23.6552 30.4796C23.7181 30.3279 23.7504 30.1652 23.7504 30.001C23.7504 29.8367 23.7181 29.6741 23.6552 29.5224C23.5924 29.3706 23.5002 29.2327 23.3841 29.1166L20.5169 26.251L23.3841 23.3854C23.5003 23.2693 23.5925 23.1314 23.6554 22.9797C23.7183 22.8279 23.7507 22.6653 23.7507 22.501C23.7507 22.3367 23.7183 22.1741 23.6554 22.0223C23.5925 21.8706 23.5003 21.7327 23.3841 21.6166ZM15.2138 31.7729C14.745 32.2413 14.1094 32.5045 13.4466 32.5045C12.7838 32.5045 12.1482 32.2413 11.6794 31.7729L8.23253 28.3213C7.76404 27.8525 7.50088 27.2169 7.50088 26.5541C7.50088 25.8914 7.76404 25.2557 8.23253 24.7869L11.8747 21.1432L18.8575 28.126L15.2138 31.7729ZM37.1341 2.86661C37.018 2.75039 36.8801 2.65819 36.7284 2.59528C36.5766 2.53238 36.414 2.5 36.2497 2.5C36.0855 2.5 35.9228 2.53238 35.771 2.59528C35.6193 2.65819 35.4814 2.75039 35.3653 2.86661L30.9278 7.30567L30.0888 6.46505C29.1501 5.52903 27.8785 5.00341 26.5528 5.00341C25.2272 5.00341 23.9556 5.52903 23.0169 6.46505L19.3747 10.1088L18.3841 9.11661C18.1495 8.88206 17.8314 8.75029 17.4997 8.75029C17.168 8.75029 16.8499 8.88206 16.6153 9.11661C16.3808 9.35116 16.249 9.66928 16.249 10.001C16.249 10.3327 16.3808 10.6508 16.6153 10.8854L29.1153 23.3854C29.2315 23.5015 29.3694 23.5936 29.5211 23.6565C29.6728 23.7193 29.8355 23.7517 29.9997 23.7517C30.164 23.7517 30.3266 23.7193 30.4783 23.6565C30.6301 23.5936 30.768 23.5015 30.8841 23.3854C31.0002 23.2692 31.0924 23.1313 31.1552 22.9796C31.2181 22.8279 31.2504 22.6652 31.2504 22.501C31.2504 22.3367 31.2181 22.1741 31.1552 22.0224C31.0924 21.8706 31.0002 21.7327 30.8841 21.6166L29.8919 20.626L33.5357 16.9838C34.0001 16.5195 34.3685 15.9682 34.6198 15.3615C34.8712 14.7548 35.0005 14.1046 35.0005 13.4479C35.0005 12.7912 34.8712 12.1409 34.6198 11.5342C34.3685 10.9275 34.0001 10.3762 33.5357 9.91192L32.695 9.07286L37.1341 4.63536C37.2503 4.51927 37.3425 4.38141 37.4054 4.22966C37.4683 4.07791 37.5007 3.91525 37.5007 3.75098C37.5007 3.58671 37.4683 3.42406 37.4054 3.27231C37.3425 3.12056 37.2503 2.9827 37.1341 2.86661ZM31.7669 15.2104L28.1247 18.8588L21.1419 11.876L24.7857 8.2338C25.2545 7.76531 25.8901 7.50214 26.5528 7.50214C27.2156 7.50214 27.8512 7.76531 28.32 8.2338L31.7669 11.6713C32.0003 11.9036 32.1855 12.1797 32.3118 12.4838C32.4382 12.7878 32.5033 13.1139 32.5033 13.4432C32.5033 13.7725 32.4382 14.0985 32.3118 14.4026C32.1855 14.7066 32.0003 14.9828 31.7669 15.215V15.2104Z" fill="#02021C"/>
</svg>
