<svg width="51" height="50" viewBox="0 0 51 50" fill="none" xmlns="http://www.w3.org/2000/svg">
<path d="M22.3434 20.0779C22.279 19.8849 22.2533 19.6811 22.2677 19.4781C22.2822 19.2752 22.3364 19.077 22.4274 18.8951C22.5184 18.7131 22.6443 18.5508 22.7981 18.4175C22.9518 18.2842 23.1302 18.1825 23.3233 18.1181L25.6471 17.3435C25.88 17.2659 26.128 17.2447 26.3707 17.2817C26.6134 17.3187 26.8438 17.4129 27.0429 17.5565C27.2421 17.7 27.4043 17.8888 27.5161 18.1073C27.628 18.3259 27.6863 18.5679 27.6863 18.8133V26.5595C27.6863 26.9704 27.5231 27.3644 27.2325 27.655C26.942 27.9455 26.5479 28.1087 26.1371 28.1087C25.7262 28.1087 25.3321 27.9455 25.0416 27.655C24.751 27.3644 24.5878 26.9704 24.5878 26.5595V20.9629L24.3032 21.0578C24.1101 21.1221 23.9063 21.1478 23.7034 21.1334C23.5004 21.119 23.3023 21.0648 23.1203 20.9738C22.9383 20.8828 22.776 20.7568 22.6427 20.6031C22.5094 20.4494 22.4077 20.2709 22.3434 20.0779ZM48.6009 40.5025C48.6009 40.9134 48.4376 41.3075 48.1471 41.598C47.8566 41.8885 47.4625 42.0518 47.0516 42.0518H3.67325C3.26237 42.0518 2.86832 41.8885 2.57778 41.598C2.28725 41.3075 2.12402 40.9134 2.12402 40.5025C2.12402 40.0917 2.28725 39.6976 2.57778 39.4071C2.86832 39.1165 3.26237 38.9533 3.67325 38.9533H5.22248V20.3626C5.22248 19.5408 5.54892 18.7527 6.13 18.1716C6.71107 17.5906 7.49917 17.2641 8.32093 17.2641H16.0671V11.0672C16.0671 10.2454 16.3935 9.45734 16.9746 8.87627C17.5557 8.29519 18.3438 7.96875 19.1655 7.96875H31.5594C32.3811 7.96875 33.1692 8.29519 33.7503 8.87627C34.3314 9.45734 34.6578 10.2454 34.6578 11.0672V25.0103H42.4039C43.2257 25.0103 44.0138 25.3367 44.5949 25.9178C45.176 26.4988 45.5024 27.287 45.5024 28.1087V38.9533H47.0516C47.4625 38.9533 47.8566 39.1165 48.1471 39.4071C48.4376 39.6976 48.6009 40.0917 48.6009 40.5025ZM34.6578 28.1087V38.9533H42.4039V28.1087H34.6578ZM19.1655 38.9533H31.5594V11.0672H19.1655V38.9533ZM8.32093 38.9533H16.0671V20.3626H8.32093V38.9533Z" fill="#02021C"/>
</svg>
