<svg width="50" height="50" viewBox="0 0 50 50" fill="none" xmlns="http://www.w3.org/2000/svg">
<path d="M29.6884 43.7505C29.6884 44.1649 29.5238 44.5623 29.2307 44.8553C28.9377 45.1484 28.5403 45.313 28.1259 45.313H21.8759C21.4615 45.313 21.0641 45.1484 20.771 44.8553C20.478 44.5623 20.3134 44.1649 20.3134 43.7505C20.3134 43.3361 20.478 42.9387 20.771 42.6456C21.0641 42.3526 21.4615 42.188 21.8759 42.188H28.1259C28.5403 42.188 28.9377 42.3526 29.2307 42.6456C29.5238 42.9387 29.6884 43.3361 29.6884 43.7505ZM25.0009 21.8755C25.4644 21.8755 25.9176 21.738 26.303 21.4805C26.6884 21.223 26.9888 20.8569 27.1662 20.4286C27.3436 20.0004 27.39 19.5291 27.2996 19.0745C27.2092 18.6198 26.9859 18.2022 26.6582 17.8745C26.3304 17.5467 25.9128 17.3235 25.4581 17.233C25.0035 17.1426 24.5322 17.189 24.104 17.3664C23.6757 17.5438 23.3097 17.8442 23.0521 18.2296C22.7946 18.615 22.6571 19.0682 22.6571 19.5317C22.6571 20.1533 22.9041 20.7495 23.3436 21.189C23.7831 21.6286 24.3793 21.8755 25.0009 21.8755ZM43.6767 30.436L41.2626 41.3013C41.1481 41.8172 40.9046 42.2957 40.5548 42.692C40.2051 43.0882 39.7606 43.3893 39.2628 43.5671C38.7651 43.7448 38.2304 43.7934 37.7088 43.7083C37.1872 43.6232 36.6956 43.4073 36.2802 43.0806L30.9599 39.063H19.0458L13.7216 43.0806C13.3061 43.4073 12.8146 43.6232 12.293 43.7083C11.7714 43.7934 11.2367 43.7448 10.7389 43.5671C10.2412 43.3893 9.79668 43.0882 9.44694 42.692C9.09721 42.2957 8.85369 41.8172 8.73916 41.3013L6.3251 30.436C6.2227 29.9698 6.22788 29.4863 6.34023 29.0223C6.45259 28.5583 6.66917 28.1261 6.97354 27.7583L12.5517 21.0669C12.7389 18.6078 13.3034 16.1921 14.2255 13.9048C16.745 7.58837 21.2567 3.62548 23.0868 2.21533C23.6346 1.79088 24.3079 1.56055 25.0009 1.56055C25.6939 1.56055 26.3672 1.79088 26.9149 2.21533C28.7392 3.62548 33.2567 7.58837 35.7763 13.9048C36.6983 16.1921 37.2629 18.6078 37.4501 21.0669L43.0282 27.7583C43.3326 28.1261 43.5492 28.5583 43.6615 29.0223C43.7739 29.4863 43.7791 29.9698 43.6767 30.436ZM19.4208 35.938H30.581C34.706 28.606 35.4774 21.5864 32.8739 15.063C30.5771 9.30517 26.2685 5.66454 25.0009 4.68798C23.7294 5.66454 19.4208 9.30517 17.1239 15.063C14.5243 21.5864 15.2958 28.606 19.4208 35.938ZM16.4911 37.0806C14.3883 33.2589 13.1122 29.5031 12.663 25.813L9.37588 29.7583L11.7899 40.6255L11.8251 40.6001L16.4911 37.0806ZM40.6259 29.7583L37.3388 25.813C36.8935 29.4953 35.62 33.2511 33.5185 37.0806L38.1767 40.5962L38.2118 40.6216L40.6259 29.7583Z" fill="#0B0446"/>
</svg>
