<svg width="50" height="50" viewBox="0 0 50 50" fill="none" xmlns="http://www.w3.org/2000/svg">
<path d="M34.3757 31.2504C33.3334 31.2501 32.3016 31.4589 31.3415 31.8645C30.3813 32.2701 29.5123 32.8642 28.7859 33.6117L19.782 27.8246C20.4902 26.0084 20.4902 23.9924 19.782 22.1762L28.7859 16.3891C30.1383 17.7745 31.957 18.6083 33.8893 18.729C35.8217 18.8496 37.7299 18.2485 39.2442 17.0421C40.7585 15.8357 41.7709 14.11 42.0851 12.1996C42.3993 10.2892 41.993 8.33014 40.9449 6.70229C39.8968 5.07445 38.2816 3.89377 36.4124 3.38916C34.5432 2.88456 32.5533 3.09198 30.8283 3.97121C29.1034 4.85044 27.7664 6.33884 27.0765 8.14784C26.3866 9.95684 26.393 11.9576 27.0945 13.7621L18.0906 19.5492C17.0063 18.4361 15.6148 17.6716 14.0938 17.3534C12.5728 17.0352 10.9914 17.1779 9.55194 17.7631C8.11243 18.3483 6.88014 19.3495 6.01258 20.6387C5.14503 21.9279 4.68164 23.4465 4.68164 25.0004C4.68164 26.5543 5.14503 28.0729 6.01258 29.3621C6.88014 30.6513 8.11243 31.6525 9.55194 32.2377C10.9914 32.8229 12.5728 32.9655 14.0938 32.6474C15.6148 32.3292 17.0063 31.5647 18.0906 30.4516L27.0945 36.2387C26.4913 37.7944 26.402 39.5024 26.8398 41.1125C27.2775 42.7226 28.2192 44.1503 29.5271 45.1864C30.8349 46.2226 32.4402 46.8128 34.1077 46.8707C35.7753 46.9286 37.4175 46.451 38.7941 45.508C40.1706 44.565 41.209 43.206 41.7573 41.6301C42.3056 40.0542 42.3349 38.3441 41.841 36.7503C41.3471 35.1566 40.3559 33.7628 39.0126 32.7731C37.6692 31.7834 36.0443 31.2498 34.3757 31.2504ZM34.3757 6.2504C35.3028 6.2504 36.2091 6.52531 36.9799 7.04038C37.7508 7.55545 38.3516 8.28754 38.7064 9.14407C39.0612 10.0006 39.154 10.9431 38.9731 11.8524C38.7923 12.7617 38.3458 13.5969 37.6903 14.2525C37.0347 14.908 36.1995 15.3545 35.2902 15.5353C34.3809 15.7162 33.4384 15.6234 32.5819 15.2686C31.7254 14.9138 30.9933 14.313 30.4782 13.5421C29.9631 12.7713 29.6882 11.865 29.6882 10.9379C29.6882 9.69469 30.1821 8.50241 31.0612 7.62333C31.9402 6.74426 33.1325 6.2504 34.3757 6.2504ZM12.5007 29.6879C11.5736 29.6879 10.6673 29.413 9.89648 28.8979C9.12562 28.3828 8.52481 27.6508 8.17003 26.7942C7.81524 25.9377 7.72242 24.9952 7.90328 24.0859C8.08415 23.1766 8.53059 22.3414 9.18615 21.6858C9.84171 21.0303 10.6769 20.5838 11.5862 20.403C12.4955 20.2221 13.438 20.3149 14.2945 20.6697C15.1511 21.0245 15.8832 21.6253 16.3982 22.3962C16.9133 23.167 17.1882 24.0733 17.1882 25.0004C17.1882 26.2436 16.6944 27.4359 15.8153 28.315C14.9362 29.194 13.7439 29.6879 12.5007 29.6879ZM34.3757 43.7504C33.4486 43.7504 32.5423 43.4755 31.7715 42.9604C31.0006 42.4453 30.3998 41.7133 30.045 40.8567C29.6902 40.0002 29.5974 39.0577 29.7783 38.1484C29.9592 37.2391 30.4056 36.4039 31.0612 35.7483C31.7167 35.0928 32.5519 34.6463 33.4612 34.4655C34.3705 34.2846 35.313 34.3774 36.1695 34.7322C37.0261 35.087 37.7582 35.6878 38.2732 36.4587C38.7883 37.2295 39.0632 38.1358 39.0632 39.0629C39.0632 40.3061 38.5694 41.4984 37.6903 42.3775C36.8112 43.2565 35.6189 43.7504 34.3757 43.7504Z" fill="#0B0446"/>
</svg>
