<svg width="26" height="26" viewBox="0 0 26 26" fill="none" xmlns="http://www.w3.org/2000/svg">
<path d="M20.8125 4.15625H5.1875C4.7731 4.15625 4.37567 4.32087 4.08265 4.6139C3.78962 4.90692 3.625 5.30435 3.625 5.71875V11.1875C3.625 16.3359 6.11719 19.4561 8.20801 21.167C10.46 23.0088 12.7002 23.6338 12.7979 23.6602C12.9321 23.6967 13.0737 23.6967 13.208 23.6602C13.3057 23.6338 15.543 23.0088 17.7979 21.167C19.8828 19.4561 22.375 16.3359 22.375 11.1875V5.71875C22.375 5.30435 22.2104 4.90692 21.9174 4.6139C21.6243 4.32087 21.2269 4.15625 20.8125 4.15625ZM16.8477 19.9199C15.7024 20.863 14.4 21.5969 13 22.0879C11.6184 21.6054 10.332 20.8846 9.19922 19.958C8.25723 19.1972 7.44835 18.285 6.80566 17.2588L13 12.9229L19.1943 17.2588C18.5628 18.2681 17.77 19.1671 16.8477 19.9199ZM20.8125 11.1875C20.8125 12.9004 20.515 14.4577 19.9199 15.8594L13.4482 11.3291C13.3169 11.2371 13.1604 11.1877 13 11.1877C12.8396 11.1877 12.6831 11.2371 12.5518 11.3291L6.0791 15.8594C5.48633 14.4609 5.1875 12.9004 5.1875 11.1875V5.71875H20.8125V11.1875Z" fill="#00FF04"/>
</svg>
