<svg width="50" height="50" viewBox="0 0 50 50" fill="none" xmlns="http://www.w3.org/2000/svg">
<path d="M46.7489 13.6869C46.5897 13.1903 46.2859 12.7524 45.8764 12.4295C45.4668 12.1066 44.9702 11.9133 44.4501 11.8744L37.2352 11.3041L34.4599 4.72989C34.2571 4.25381 33.9189 3.84784 33.4872 3.56249C33.0556 3.27714 32.5496 3.125 32.0321 3.125C31.5147 3.125 31.0086 3.27714 30.577 3.56249C30.1453 3.84784 29.8071 4.25381 29.6044 4.72989L26.829 11.3041L19.6141 11.8744C19.0961 11.9126 18.6011 12.1042 18.1923 12.4248C17.7835 12.7454 17.4795 13.1805 17.319 13.6746C17.1585 14.1687 17.1488 14.6994 17.2911 15.199C17.4334 15.6986 17.7213 16.1445 18.1181 16.4799L23.5985 21.1049L21.9267 28.017C21.805 28.5176 21.8348 29.043 22.0121 29.5267C22.1895 30.0103 22.5064 30.4305 22.9227 30.7338C23.343 31.0436 23.8456 31.2217 24.3671 31.2457C24.8886 31.2697 25.4055 31.1384 25.8524 30.8686L32.0321 27.1479L38.2138 30.8705C38.6609 31.1396 39.1777 31.2704 39.699 31.2465C40.2203 31.2225 40.7229 31.0448 41.1434 30.7358C41.5591 30.4318 41.8753 30.0115 42.0522 29.528C42.2292 29.0445 42.2589 28.5194 42.1376 28.019L40.4657 21.1068L45.9462 16.4818C46.3431 16.1489 46.6315 15.705 46.7745 15.207C46.9175 14.7091 46.9086 14.1798 46.7489 13.6869ZM37.7118 19.3354C37.4901 19.5227 37.3249 19.7682 37.2349 20.0442C37.1448 20.3202 37.1335 20.6158 37.202 20.8979L38.8192 27.5795L32.8388 23.9838C32.5955 23.8374 32.317 23.7601 32.0331 23.7601C31.7492 23.7601 31.4707 23.8374 31.2274 23.9838L25.247 27.5834L26.8641 20.8979C26.9325 20.6156 26.9208 20.3199 26.8304 20.0439C26.74 19.7679 26.5745 19.5225 26.3524 19.3354L21.0946 14.894L28.0321 14.3451C28.3176 14.3225 28.5915 14.2218 28.8236 14.054C29.0558 13.8863 29.2374 13.6579 29.3485 13.394L32.0321 7.0131L34.7255 13.394C34.8366 13.6579 35.0182 13.8863 35.2504 14.054C35.4826 14.2218 35.7564 14.3225 36.0419 14.3451L42.9813 14.894L37.7118 19.3354ZM17.204 24.058L5.79384 35.4799C5.50065 35.7731 5.103 35.9378 4.68837 35.9378C4.27374 35.9378 3.87609 35.7731 3.5829 35.4799C3.28971 35.1867 3.125 34.7891 3.125 34.3744C3.125 33.9598 3.28971 33.5621 3.5829 33.269L14.9989 21.8529C15.2921 21.5598 15.6898 21.395 16.1044 21.395C16.519 21.395 16.9167 21.5598 17.2099 21.8529C17.503 22.1461 17.6678 22.5438 17.6678 22.9584C17.6678 23.373 17.503 23.7707 17.2099 24.0639L17.204 24.058ZM19.3153 33.7983C19.6081 34.0913 19.7726 34.4885 19.7726 34.9027C19.7726 35.317 19.6081 35.7142 19.3153 36.0072L8.91884 46.4174C8.77367 46.5626 8.60132 46.6777 8.41164 46.7563C8.22197 46.8349 8.01867 46.8753 7.81337 46.8753C7.60806 46.8753 7.40477 46.8349 7.21509 46.7563C7.02542 46.6777 6.85307 46.5626 6.7079 46.4174C6.56273 46.2722 6.44757 46.0999 6.369 45.9102C6.29044 45.7205 6.25 45.5172 6.25 45.3119C6.25 45.1066 6.29044 44.9033 6.369 44.7137C6.44757 44.524 6.56273 44.3516 6.7079 44.2065L17.1122 33.8041C17.4052 33.5113 17.8025 33.3468 18.2167 33.3468C18.6309 33.3468 19.0282 33.5113 19.3212 33.8041L19.3153 33.7983ZM33.5731 33.6029C33.7184 33.7481 33.8337 33.9204 33.9123 34.1101C33.9909 34.2998 34.0314 34.5031 34.0314 34.7084C34.0314 34.9137 33.9909 35.1171 33.9123 35.3068C33.8337 35.4964 33.7184 35.6688 33.5731 35.8139L22.9716 46.4154C22.6784 46.7086 22.2807 46.8733 21.8661 46.8733C21.4515 46.8733 21.0538 46.7086 20.7606 46.4154C20.4674 46.1223 20.3027 45.7246 20.3027 45.31C20.3027 44.8953 20.4674 44.4977 20.7606 44.2045L31.3642 33.6029C31.5095 33.4566 31.6824 33.3405 31.8729 33.2614C32.0634 33.1822 32.2677 33.1416 32.4739 33.1417C32.6802 33.1419 32.8844 33.1829 33.0747 33.2624C33.2651 33.3419 33.4378 33.4583 33.5829 33.6049L33.5731 33.6029Z" fill="#00FF04"/>
</svg>
