<svg width="50" height="50" viewBox="0 0 50 50" fill="none" xmlns="http://www.w3.org/2000/svg">
<path d="M42.1876 9.375H7.81255C6.98375 9.375 6.1889 9.70424 5.60285 10.2903C5.01679 10.8763 4.68755 11.6712 4.68755 12.5V43.75C4.68402 44.3456 4.85241 44.9297 5.17252 45.432C5.49262 45.9343 5.95085 46.3336 6.49224 46.582C6.90595 46.7741 7.35643 46.8741 7.81255 46.875C8.54616 46.8732 9.25542 46.6117 9.81451 46.1367L9.83209 46.123L16.211 40.625H42.1876C43.0164 40.625 43.8112 40.2958 44.3973 39.7097C44.9833 39.1237 45.3126 38.3288 45.3126 37.5V12.5C45.3126 11.6712 44.9833 10.8763 44.3973 10.2903C43.8112 9.70424 43.0164 9.375 42.1876 9.375ZM42.1876 37.5H15.6251C15.2499 37.5002 14.8873 37.6354 14.6036 37.8809L7.81255 43.75V12.5H42.1876V37.5ZM17.1876 21.875C17.1876 21.4606 17.3522 21.0632 17.6452 20.7701C17.9382 20.4771 18.3357 20.3125 18.7501 20.3125H31.2501C31.6645 20.3125 32.0619 20.4771 32.3549 20.7701C32.6479 21.0632 32.8126 21.4606 32.8126 21.875C32.8126 22.2894 32.6479 22.6868 32.3549 22.9799C32.0619 23.2729 31.6645 23.4375 31.2501 23.4375H18.7501C18.3357 23.4375 17.9382 23.2729 17.6452 22.9799C17.3522 22.6868 17.1876 22.2894 17.1876 21.875ZM17.1876 28.125C17.1876 27.7106 17.3522 27.3132 17.6452 27.0201C17.9382 26.7271 18.3357 26.5625 18.7501 26.5625H31.2501C31.6645 26.5625 32.0619 26.7271 32.3549 27.0201C32.6479 27.3132 32.8126 27.7106 32.8126 28.125C32.8126 28.5394 32.6479 28.9368 32.3549 29.2299C32.0619 29.5229 31.6645 29.6875 31.2501 29.6875H18.7501C18.3357 29.6875 17.9382 29.5229 17.6452 29.2299C17.3522 28.9368 17.1876 28.5394 17.1876 28.125Z" fill="#00FF04"/>
</svg>
