<svg width="51" height="50" viewBox="0 0 51 50" fill="none" xmlns="http://www.w3.org/2000/svg">
<path d="M38.8375 25.2171L28.8488 21.5261L25.1694 11.5297C24.9515 10.9378 24.5573 10.4269 24.04 10.066C23.5226 9.70518 22.907 9.5117 22.2762 9.5117C21.6455 9.5117 21.0299 9.70518 20.5125 10.066C19.9952 10.4269 19.601 10.9378 19.3831 11.5297L15.6804 21.5261L5.68401 25.2055C5.09207 25.4234 4.58121 25.8176 4.22035 26.335C3.8595 26.8523 3.66602 27.4679 3.66602 28.0987C3.66602 28.7295 3.8595 29.3451 4.22035 29.8624C4.58121 30.3798 5.09207 30.774 5.68401 30.9919L15.6804 34.6945L19.3598 44.6909C19.5777 45.2829 19.9719 45.7937 20.4893 46.1546C21.0066 46.5154 21.6222 46.7089 22.253 46.7089C22.8838 46.7089 23.4994 46.5154 24.0167 46.1546C24.5341 45.7937 24.9283 45.2829 25.1462 44.6909L28.8488 34.6945L38.8452 31.0151C39.4372 30.7972 39.948 30.403 40.3089 29.8856C40.6697 29.3683 40.8632 28.7527 40.8632 28.1219C40.8632 27.4912 40.6697 26.8756 40.3089 26.3582C39.948 25.8409 39.4372 25.4466 38.8452 25.2287L38.8375 25.2171ZM27.106 32.026C26.8957 32.1035 26.7047 32.2257 26.5462 32.3842C26.3877 32.5426 26.2655 32.7336 26.188 32.9439L22.2646 43.5735L18.3489 32.9516C18.2716 32.7391 18.1486 32.5462 17.9887 32.3862C17.8288 32.2263 17.6358 32.1034 17.4233 32.026L6.80139 28.1103L17.4233 24.1946C17.6358 24.1173 17.8288 23.9943 17.9887 23.8344C18.1486 23.6745 18.2716 23.4815 18.3489 23.269L22.2646 12.6471L26.1803 23.269C26.2578 23.4793 26.38 23.6702 26.5385 23.8287C26.697 23.9872 26.8879 24.1094 27.0982 24.1869L37.7279 28.1103L27.106 32.026ZM28.4615 7.97035C28.4615 7.55947 28.6248 7.16542 28.9153 6.87488C29.2058 6.58434 29.5999 6.42112 30.0108 6.42112H33.1092V3.32267C33.1092 2.91178 33.2724 2.51773 33.563 2.2272C33.8535 1.93666 34.2476 1.77344 34.6584 1.77344C35.0693 1.77344 35.4634 1.93666 35.7539 2.2272C36.0445 2.51773 36.2077 2.91178 36.2077 3.32267V6.42112H39.3061C39.717 6.42112 40.1111 6.58434 40.4016 6.87488C40.6921 7.16542 40.8554 7.55947 40.8554 7.97035C40.8554 8.38123 40.6921 8.77528 40.4016 9.06582C40.1111 9.35635 39.717 9.51958 39.3061 9.51958H36.2077V12.618C36.2077 13.0289 36.0445 13.423 35.7539 13.7135C35.4634 14.004 35.0693 14.1673 34.6584 14.1673C34.2476 14.1673 33.8535 14.004 33.563 13.7135C33.2724 13.423 33.1092 13.0289 33.1092 12.618V9.51958H30.0108C29.5999 9.51958 29.2058 9.35635 28.9153 9.06582C28.6248 8.77528 28.4615 8.38123 28.4615 7.97035ZM48.6015 17.2657C48.6015 17.6766 48.4383 18.0706 48.1477 18.3612C47.8572 18.6517 47.4631 18.8149 47.0523 18.8149H45.503V20.3642C45.503 20.7751 45.3398 21.1691 45.0493 21.4596C44.7587 21.7502 44.3647 21.9134 43.9538 21.9134C43.5429 21.9134 43.1489 21.7502 42.8583 21.4596C42.5678 21.1691 42.4046 20.7751 42.4046 20.3642V18.8149H40.8554C40.4445 18.8149 40.0504 18.6517 39.7599 18.3612C39.4693 18.0706 39.3061 17.6766 39.3061 17.2657C39.3061 16.8548 39.4693 16.4608 39.7599 16.1702C40.0504 15.8797 40.4445 15.7165 40.8554 15.7165H42.4046V14.1673C42.4046 13.7564 42.5678 13.3623 42.8583 13.0718C43.1489 12.7813 43.5429 12.618 43.9538 12.618C44.3647 12.618 44.7587 12.7813 45.0493 13.0718C45.3398 13.3623 45.503 13.7564 45.503 14.1673V15.7165H47.0523C47.4631 15.7165 47.8572 15.8797 48.1477 16.1702C48.4383 16.4608 48.6015 16.8548 48.6015 17.2657Z" fill="#02021C"/>
</svg>
