<svg width="26" height="26" viewBox="0 0 26 26" fill="none" xmlns="http://www.w3.org/2000/svg">
<path d="M23.1562 10.4062C23.3635 10.4062 23.5622 10.3239 23.7087 10.1774C23.8552 10.0309 23.9375 9.8322 23.9375 9.625V6.5C23.9375 6.0856 23.7729 5.68817 23.4799 5.39515C23.1868 5.10212 22.7894 4.9375 22.375 4.9375H3.625C3.2106 4.9375 2.81317 5.10212 2.52015 5.39515C2.22712 5.68817 2.0625 6.0856 2.0625 6.5V9.625C2.0625 9.8322 2.14481 10.0309 2.29132 10.1774C2.43784 10.3239 2.63655 10.4062 2.84375 10.4062C3.46535 10.4062 4.06149 10.6532 4.50103 11.0927C4.94057 11.5323 5.1875 12.1284 5.1875 12.75C5.1875 13.3716 4.94057 13.9677 4.50103 14.4073C4.06149 14.8468 3.46535 15.0937 2.84375 15.0938C2.63655 15.0938 2.43784 15.1761 2.29132 15.3226C2.14481 15.4691 2.0625 15.6678 2.0625 15.875V19C2.0625 19.4144 2.22712 19.8118 2.52015 20.1049C2.81317 20.3979 3.2106 20.5625 3.625 20.5625H22.375C22.7894 20.5625 23.1868 20.3979 23.4799 20.1049C23.7729 19.8118 23.9375 19.4144 23.9375 19V15.875C23.9375 15.6678 23.8552 15.4691 23.7087 15.3226C23.5622 15.1761 23.3635 15.0938 23.1562 15.0938C22.5346 15.0937 21.9385 14.8468 21.499 14.4073C21.0594 13.9677 20.8125 13.3716 20.8125 12.75C20.8125 12.1284 21.0594 11.5323 21.499 11.0927C21.9385 10.6532 22.5346 10.4063 23.1562 10.4062ZM3.625 16.5781C4.50804 16.3988 5.30193 15.9197 5.87217 15.2221C6.44241 14.5244 6.75392 13.6511 6.75392 12.75C6.75392 11.8489 6.44241 10.9756 5.87217 10.2779C5.30193 9.58026 4.50804 9.10118 3.625 8.92188V6.5H9.09375V19H3.625V16.5781ZM22.375 16.5781V19H10.6562V6.5H22.375V8.92188C21.492 9.10118 20.6981 9.58026 20.1278 10.2779C19.5576 10.9756 19.2461 11.8489 19.2461 12.75C19.2461 13.6511 19.5576 14.5244 20.1278 15.2221C20.6981 15.9197 21.492 16.3988 22.375 16.5781Z" fill="#00FF04"/>
</svg>
