<svg width="82" height="82" viewBox="0 0 82 82" fill="none" xmlns="http://www.w3.org/2000/svg">
<rect width="82" height="82" rx="10" fill="white"/>
<path d="M25.3745 28.5C25.3745 28.0856 25.5391 27.6882 25.8322 27.3951C26.1252 27.1021 26.5226 26.9375 26.937 26.9375H30.062V23.8125C30.062 23.3981 30.2266 23.0007 30.5197 22.7076C30.8127 22.4146 31.2101 22.25 31.6245 22.25C32.0389 22.25 32.4364 22.4146 32.7294 22.7076C33.0224 23.0007 33.187 23.3981 33.187 23.8125V26.9375H36.312C36.7264 26.9375 37.1239 27.1021 37.4169 27.3951C37.7099 27.6882 37.8745 28.0856 37.8745 28.5C37.8745 28.9144 37.7099 29.3118 37.4169 29.6049C37.1239 29.8979 36.7264 30.0625 36.312 30.0625H33.187V33.1875C33.187 33.6019 33.0224 33.9993 32.7294 34.2924C32.4364 34.5854 32.0389 34.75 31.6245 34.75C31.2101 34.75 30.8127 34.5854 30.5197 34.2924C30.2266 33.9993 30.062 33.6019 30.062 33.1875V30.0625H26.937C26.5226 30.0625 26.1252 29.8979 25.8322 29.6049C25.5391 29.3118 25.3745 28.9144 25.3745 28.5ZM51.937 53.5H50.3745V51.9375C50.3745 51.5231 50.2099 51.1257 49.9169 50.8326C49.6239 50.5396 49.2264 50.375 48.812 50.375C48.3976 50.375 48.0002 50.5396 47.7072 50.8326C47.4141 51.1257 47.2495 51.5231 47.2495 51.9375V53.5H45.687C45.2726 53.5 44.8752 53.6646 44.5822 53.9576C44.2891 54.2507 44.1245 54.6481 44.1245 55.0625C44.1245 55.4769 44.2891 55.8743 44.5822 56.1674C44.8752 56.4604 45.2726 56.625 45.687 56.625H47.2495V58.1875C47.2495 58.6019 47.4141 58.9993 47.7072 59.2924C48.0002 59.5854 48.3976 59.75 48.812 59.75C49.2264 59.75 49.6239 59.5854 49.9169 59.2924C50.2099 58.9993 50.3745 58.6019 50.3745 58.1875V56.625H51.937C52.3514 56.625 52.7489 56.4604 53.0419 56.1674C53.3349 55.8743 53.4995 55.4769 53.4995 55.0625C53.4995 54.6481 53.3349 54.2507 53.0419 53.9576C52.7489 53.6646 52.3514 53.5 51.937 53.5ZM62.8745 44.125H59.7495V41C59.7495 40.5856 59.5849 40.1882 59.2919 39.8951C58.9989 39.6021 58.6014 39.4375 58.187 39.4375C57.7726 39.4375 57.3752 39.6021 57.0822 39.8951C56.7891 40.1882 56.6245 40.5856 56.6245 41V44.125H53.4995C53.0851 44.125 52.6877 44.2896 52.3947 44.5826C52.1016 44.8757 51.937 45.2731 51.937 45.6875C51.937 46.1019 52.1016 46.4993 52.3947 46.7924C52.6877 47.0854 53.0851 47.25 53.4995 47.25H56.6245V50.375C56.6245 50.7894 56.7891 51.1868 57.0822 51.4799C57.3752 51.7729 57.7726 51.9375 58.187 51.9375C58.6014 51.9375 58.9989 51.7729 59.2919 51.4799C59.5849 51.1868 59.7495 50.7894 59.7495 50.375V47.25H62.8745C63.2889 47.25 63.6864 47.0854 63.9794 46.7924C64.2724 46.4993 64.437 46.1019 64.437 45.6875C64.437 45.2731 64.2724 44.8757 63.9794 44.5826C63.6864 44.2896 63.2889 44.125 62.8745 44.125ZM58.8335 31.625L31.6245 58.834C31.0385 59.4196 30.244 59.7486 29.4155 59.7486C28.5871 59.7486 27.7926 59.4196 27.2066 58.834L23.1636 54.7949C22.8733 54.5047 22.6431 54.1602 22.486 53.781C22.3289 53.4018 22.248 52.9954 22.248 52.585C22.248 52.1745 22.3289 51.7681 22.486 51.3889C22.6431 51.0097 22.8733 50.6652 23.1636 50.375L50.3745 23.166C50.6647 22.8758 51.0092 22.6455 51.3884 22.4884C51.7676 22.3313 52.174 22.2505 52.5845 22.2505C52.9949 22.2505 53.4014 22.3313 53.7805 22.4884C54.1597 22.6455 54.5043 22.8758 54.7945 23.166L58.8335 27.2051C59.1238 27.4953 59.354 27.8398 59.5111 28.219C59.6682 28.5982 59.7491 29.0046 59.7491 29.415C59.7491 29.8255 59.6682 30.2319 59.5111 30.6111C59.354 30.9903 59.1238 31.3348 58.8335 31.625ZM48.1636 37.875L44.1245 33.834L25.3745 52.584L29.4136 56.625L48.1636 37.875ZM56.6245 29.416L52.5835 25.375L46.3335 31.625L50.3745 35.666L56.6245 29.416Z" fill="#322BB9"/>
</svg>
