<svg width="240" height="40" viewBox="0 0 240 40" fill="none" xmlns="http://www.w3.org/2000/svg">
<path d="M138.521 15.1992V17.3132L131.073 22.8852H138.521V24.9992H127.461V22.8852L134.895 17.3132H127.461V15.1992H138.521Z" fill="#02021C"/>
<path d="M122.204 15.1992V24.9992H119.684V18.2792L115.61 24.9992H113.79L109.716 18.2792V24.9992H107.196V15.1992H110.598L114.7 22.1152L118.802 15.1992H122.204Z" fill="#02021C"/>
<path d="M99.6081 24.9992L98.5581 22.9132H92.6921L91.6421 24.9992H88.8701L93.9241 15.1992H97.3261L102.394 24.9992H99.6081ZM93.6301 21.0372H97.6201L95.6321 17.0612L93.6301 21.0372Z" fill="#02021C"/>
<path d="M83.8903 17.2012H76.0503V19.1892H83.8903V21.0092H76.0503V22.9972H83.8903V24.9992H73.5303V15.1992H83.8903V17.2012Z" fill="#02021C"/>
<path d="M68.5019 15.1992V17.3132H63.7419V24.9992H61.2219V17.3132H56.4619V15.1992H68.5019Z" fill="#02021C"/>
<path opacity="0.3" d="M233.597 25.1405C229.285 25.1405 227.437 23.3485 227.437 20.0865C227.437 16.8385 229.285 15.0605 233.597 15.0605C237.895 15.0605 239.757 16.8525 239.757 20.0865C239.757 23.3345 237.895 25.1405 233.597 25.1405ZM233.597 23.0265C236.215 23.0265 237.237 22.0885 237.237 20.0865C237.237 18.0985 236.229 17.1745 233.597 17.1745C230.965 17.1745 229.957 18.0845 229.957 20.0865C229.957 22.1025 230.979 23.0265 233.597 23.0265Z" fill="#02021C"/>
<path opacity="0.3" d="M222.397 15.1992V24.9992H219.877V15.1992H222.397Z" fill="#02021C"/>
<path opacity="0.3" d="M210.006 15.1992C212.54 15.1992 214.766 16.7672 214.766 20.0992C214.766 23.4312 212.54 24.9992 210.006 24.9992H202.894V15.1992H210.006ZM209.054 22.8852C210.958 22.8852 212.246 22.4792 212.246 20.0992C212.246 17.7192 210.958 17.3132 209.054 17.3132H205.414V22.8852H209.054Z" fill="#02021C"/>
<path opacity="0.3" d="M197.642 20.0852C197.642 23.4872 195.78 25.1392 191.482 25.1392C187.17 25.1392 185.322 23.5012 185.322 20.0852V15.1992H187.842V20.0852C187.842 21.4572 188.22 23.0252 191.482 23.0252C194.744 23.0252 195.122 21.4432 195.122 20.0852V15.1992H197.642V20.0852Z" fill="#02021C"/>
<path opacity="0.3" d="M180.212 15.1992V17.3132H175.452V24.9992H172.932V17.3132H168.172V15.1992H180.212Z" fill="#02021C"/>
<path opacity="0.3" d="M151.462 21.6265H153.982C153.982 22.6625 154.822 23.1385 158.014 23.1385C160.66 23.1385 161.458 22.8445 161.458 22.0745C161.458 21.2625 160.898 21.1225 157.72 20.9685C153.45 20.7725 151.756 20.1005 151.756 17.9025C151.756 15.7465 153.954 15.0605 157.622 15.0605C161.318 15.0605 163.558 15.9845 163.558 18.4065H161.038C161.038 17.3285 159.96 17.0625 157.342 17.0625C154.864 17.0625 154.276 17.3005 154.276 18.0285C154.276 18.7845 154.864 18.9245 157.72 19.0925C161.584 19.3025 163.978 19.5125 163.978 21.9905C163.978 24.6085 161.5 25.1405 157.874 25.1405C153.856 25.1405 151.462 24.4545 151.462 21.6265Z" fill="#02021C"/>
<rect width="40" height="40" rx="20" fill="#00FF04"/>
<path d="M28.2 14V17.02H21.4V28H17.8V17.02H11V14H28.2Z" fill="#02021C"/>
</svg>
